<svg xmlns="http://www.w3.org/2000/svg" height="52.431mm" width="231mm" version="1.1" viewBox="0 0 230.99517 52.431251">
 <g style="image-rendering:optimizeQuality;shape-rendering:geometricPrecision" transform="matrix(.011636 0 0 .016713 -679.57 13.993)" clip-rule="evenodd">
  <path d="m64004 1008c-34-4-66-12-97-23-31-12-59-29-83-54-18-20-32-42-42-65s-17-47-21-71v-428c5-35 15-68 29-100 13-31 33-60 60-87 22-20 46-35 71-45 26-10 54-16 83-18h700c32 4 61 12 89 23s53 30 76 57c17 22 29 47 36 74 7 26 9 54 6 82-4 10-9 18-16 26s-15 14-24 18l-39 4-34-20c-14-16-20-35-18-57 1-23-7-41-25-54l-44-20h-707c-13 2-26 6-38 12-13 5-25 14-36 26-11 15-20 31-27 48-7 16-11 34-12 51v378c1 13 4 26 9 39s11 26 20 38c11 8 23 15 36 21 12 6 25 10 38 11h717l44-26c8-16 13-34 13-54 0-19 6-37 20-53 9-7 19-12 29-15 10-4 22-4 35-2 9 4 17 9 25 15s14 13 18 22l6 50c-1 29-8 57-20 84-13 27-31 50-57 70-17 13-36 23-56 29-20 7-41 12-64 14z" class="fil1"/>
  <path d="m65687 1008c-67-4-127-32-178-83-35-45-57-97-66-157v-415c9-64 37-121 86-173 47-38 100-59 158-63h641c76 7 140 38 193 94 38 48 59 104 63 166v371c-4 78-35 144-93 200-45 36-96 56-154 60zm714-156c27-27 43-58 49-94v-387c-1-34-16-63-43-87-21-18-46-29-73-34h-651c-27 2-50 14-71 34-22 27-35 58-39 93v371c4 38 20 71 47 100 20 16 42 25 67 26h654z" class="fil1"/>
  <path d="m67184 1008c-18-2-33-11-47-26l-12-24v-792c6-44 29-61 69-49l938 688v-631l24-40c15-11 32-17 50-17 34 9 54 30 60 63v765c-9 53-38 70-86 51l-925-682v644c-7 17-19 32-37 44z" class="fil1"/>
  <path d="m69050 1008c-34-4-66-12-98-23-31-12-58-29-83-54-17-20-31-42-41-65-11-23-18-47-22-71v-428c6-35 16-68 29-100 14-31 34-60 61-87 22-20 45-35 71-45s53-16 83-18h700c31 4 61 12 88 23 28 11 53 30 76 57 18 22 30 47 37 74 6 26 8 54 6 82-4 10-10 18-16 26-7 8-15 14-24 18l-40 4-34-20c-13-16-19-35-18-57 1-23-7-41-25-54l-44-20h-706c-14 2-27 6-39 12-12 5-24 14-36 26-11 15-20 31-26 48-7 16-11 34-13 51v378c2 13 5 26 10 39 4 13 11 26 19 38 12 8 24 15 36 21s25 10 39 11h716c35-9 54-32 58-69l-1-150h-597c-24-6-39-13-43-22-5-8-9-17-12-27-4-10-4-22-2-36 9-33 28-50 57-49h672c36 4 56 25 59 63v227c-2 29-9 57-21 84s-31 50-56 70c-18 13-36 23-56 29-20 7-41 12-64 14z" class="fil1"/>
  <path d="m70561 1008c-18-2-34-11-47-26l-13-24v-388c13-31 32-47 56-49h789c35-5 65-22 89-50 14-21 22-42 24-64v-44c-2-31-16-57-40-79-22-18-48-29-77-34h-785c-28-8-46-24-56-49v-35c15-31 35-47 60-49h771c78 4 145 36 200 94 29 38 48 80 57 126v34l4 30c-3 60-23 114-61 163 41 27 70 61 88 103 13 32 20 65 22 101v177c-5 41-29 62-73 63-18-2-33-11-47-26l-14-31v-193c-4-29-17-55-39-77-20-16-42-24-67-26h-771v303c-6 17-19 32-36 44z" class="fil1"/>
  <path d="m72241 250-39-19c-7-9-12-19-15-29s-3-22-2-36c14-28 34-45 60-49h1022c38 6 57 29 59 70-2 9-4 17-7 25-4 7-9 15-16 21l-34 17zm4 758c-9-2-17-5-25-9-8-3-15-9-22-17l-13-24v-437c9-28 27-45 56-50h929l36 20c7 9 12 19 15 28 4 10 4 21 2 35l-17 30c-7 4-13 8-20 12-7 3-14 6-23 8h-848v270h954c36 6 55 30 57 71-7 36-28 57-63 63z" class="fil1"/>
  <path d="m74013 1008c-60-4-110-30-150-77-25-33-41-71-47-113v-43c10-23 21-38 31-44 11-7 27-9 49-7 33 9 49 26 49 51 0 24 6 45 17 63s28 30 51 36h694c36-6 67-23 94-50 11-18 18-37 22-59v-51c-1-31-16-57-43-79-20-16-43-26-70-31h-640c-78-4-146-35-205-93-26-34-43-70-49-110v-81c9-53 35-99 80-140 53-38 111-59 174-63h678c59 4 110 27 152 67 38 44 57 96 57 157-2 17-10 33-26 46-16 11-35 16-57 14-22-10-36-22-42-35-6-14-10-33-12-59-2-25-24-45-66-57h-692c-38 5-70 21-96 48-13 22-20 46-20 73 0 26 11 48 33 67 24 17 52 28 83 33h645c73 6 138 39 193 97 34 44 53 94 57 150v43c-4 71-34 133-89 184-52 38-109 59-171 63z" class="fil1"/>
  <path d="m75682 1008c-61-4-111-30-150-77-25-33-41-71-47-113v-43c10-23 20-38 31-44 10-7 27-9 49-7 32 9 49 26 49 51 0 24 5 45 17 63 11 18 28 30 51 36h694c35-6 66-23 93-50 11-18 19-37 23-59v-51c-2-31-16-57-43-79-20-16-44-26-70-31h-640c-79-4-147-35-205-93-27-34-43-70-49-110v-81c8-53 35-99 80-140 53-38 111-59 174-63h677c60 4 111 27 153 67 38 44 57 96 57 157-2 17-11 33-27 46-15 11-34 16-56 14-22-10-36-22-42-35-6-14-10-33-12-59-2-25-24-45-66-57h-692c-38 5-70 21-96 48-13 22-20 46-20 73 0 26 11 48 33 67 24 17 52 28 83 33h645c73 6 138 39 193 97 34 44 53 94 57 150v43c-4 71-34 133-90 184-51 38-108 59-170 63z" class="fil1"/>
  <path d="m77680 1008c-18-2-34-11-47-26l-14-27v-334l-500-410-3-10v-35c18-46 51-61 100-44l474 379 475-384c55-8 86 15 92 70-2 20-11 37-27 50l-481 384v337l-16 30c-16 13-34 20-53 20z" class="fil1"/>
 </g>
 <path style="image-rendering:optimizeQuality;shape-rendering:geometricPrecision" d="m26.142 52.393c-3.02 0.2-5.99-0.41-8.87-1.43-3.94-1.4-7.34-3.66-10.21-6.71-2.8-2.96-4.8-6.4-5.97-10.29-0.54-1.8-0.97-3.63-1-5.52-0.01-1.11-0.11-2.22-0.09-3.33 0.06-2.13 0.4-4.21 0.99-6.26 1.41-4.9 4.05-9.01 7.86-12.39 2.16-1.91 4.58-3.42 7.24-4.52 1.82-0.76 3.71-1.24 5.65-1.61 2.35-0.45 4.72-0.35 7.06-0.24 2.25 0.1 4.45 0.68 6.58 1.47 2.22 0.83 4.31 1.91 6.22 3.33 1.66 1.23 3.31 2.49 4.44 4.28 1.16 1.85 1.48 3.85 1.22 6.01-0.26 2.2-1.34 3.91-2.87 5.44-3.98 3.95-7.94 7.92-11.9 11.89-1.23 1.23-2.68 2.07-4.36 2.38-4.36 0.8-8.59-1.09-10.22-5.59-1.25-3.46-0.56-6.66 2-9.34 1.36-1.42 3.06-2.25 5.07-2.48 2.22-0.26 4.29 0.07 6.13 1.35 0.87 0.61 1.63 1.39 2.4 2.14 0.11 0.1 0.06 0.52-0.06 0.65-0.72 0.78-1.49 1.52-2.23 2.28-0.27 0.26-0.49 0.21-0.76-0.04-0.64-0.58-1.25-1.22-1.97-1.68-2.15-1.38-4.71-0.51-6.05 1.3-2.28 3.08-0.06 7.03 3.28 7.41 1.49 0.18 2.74-0.33 3.75-1.33 4.15-4.1 8.27-8.24 12.39-12.38 0.88-0.89 1.39-2 1.39-3.25 0.01-1.49-0.69-2.7-1.76-3.69-1.42-1.31-2.96-2.47-4.65-3.41-2.09-1.14-4.31-1.93-6.64-2.38-1.84-0.36-3.73-0.49-5.59-0.32-5.45 0.52-10.19 2.63-14.08 6.54-2.25 2.26-3.92 4.89-5.04 7.86-0.62 1.65-1.08 3.34-1.21 5.1-0.09 1.05-0.23 2.11-0.19 3.16 0.07 2.2 0.47 4.36 1.18 6.46 0.87 2.56 2.14 4.88 3.85 6.96 2.47 3.01 5.52 5.26 9.17 6.64 1.23 0.47 2.5 0.87 3.8 1.12 2 0.37 4.03 0.5 6.09 0.28 1.73-0.18 3.43-0.51 5.08-1.07 2.53-0.86 4.85-2.12 6.9-3.84 0.72-0.6 1.41-1.24 2.03-1.94 0.69-0.78 1.06-1.76 1.06-2.8 0.01-1.36-0.57-2.51-1.52-3.47-1.15-1.17-2.31-2.32-3.47-3.48-0.45-0.44-0.44-0.57 0.01-1.01 0.67-0.66 1.33-1.33 1.99-2 0.37-0.38 0.57-0.37 0.94 0 1.19 1.2 2.39 2.39 3.58 3.59 1.35 1.39 2.21 3.01 2.48 4.97 0.46 3.44-0.74 6.2-3.29 8.46-1.95 1.72-4.06 3.2-6.42 4.31-2.03 0.94-4.13 1.62-6.34 2.04-1.66 0.32-3.32 0.45-5.07 0.38z" fill-rule="evenodd" class="fil2" clip-rule="evenodd" stroke-width=".01"/>
/&gt;</svg>
