<?xml version="1.0" encoding="UTF-8" standalone="no"?>
<svg
   xmlns:dc="http://purl.org/dc/elements/1.1/"
   xmlns:cc="http://creativecommons.org/ns#"
   xmlns:rdf="http://www.w3.org/1999/02/22-rdf-syntax-ns#"
   xmlns:svg="http://www.w3.org/2000/svg"
   xmlns="http://www.w3.org/2000/svg"
   xmlns:sodipodi="http://sodipodi.sourceforge.net/DTD/sodipodi-0.dtd"
   xmlns:inkscape="http://www.inkscape.org/namespaces/inkscape"
   height="52.431mm"
   width="231mm"
   version="1.1"
   viewBox="0 0 230.99517 52.431251"
   id="svg24"
   sodipodi:docname="base_logo.svg"
   inkscape:version="0.92.1 r15371"><metadata
   id="metadata30">
  <rdf:RDF>
    <cc:Work
       rdf:about="">
      <dc:format>image/svg+xml</dc:format>
      <dc:type
         rdf:resource="http://purl.org/dc/dcmitype/StillImage" />
    </cc:Work>
  </rdf:RDF>
</metadata>
<defs
   id="defs28" />
<sodipodi:namedview
   pagecolor="#ffffff"
   bordercolor="#666666"
   borderopacity="1"
   objecttolerance="10"
   gridtolerance="10"
   guidetolerance="10"
   inkscape:pageopacity="0"
   inkscape:pageshadow="2"
   inkscape:window-width="1920"
   inkscape:window-height="1043"
   id="namedview26"
   showgrid="false"
   inkscape:zoom="0.49365981"
   inkscape:cx="643.99787"
   inkscape:cy="-1878.945"
   inkscape:window-x="1366"
   inkscape:window-y="0"
   inkscape:window-maximized="1"
   inkscape:current-layer="svg24" />
<g
   id="g4519">
  <g
     id="g20"
     clip-rule="evenodd"
     transform="matrix(.011636 0 0 .016713 -679.57 13.993)"
     style="image-rendering:optimizeQuality;shape-rendering:geometricPrecision">
    <path
       id="path2"
       class="fil1"
       d="m64004 1008c-34-4-66-12-97-23-31-12-59-29-83-54-18-20-32-42-42-65s-17-47-21-71v-428c5-35 15-68 29-100 13-31 33-60 60-87 22-20 46-35 71-45 26-10 54-16 83-18h700c32 4 61 12 89 23s53 30 76 57c17 22 29 47 36 74 7 26 9 54 6 82-4 10-9 18-16 26s-15 14-24 18l-39 4-34-20c-14-16-20-35-18-57 1-23-7-41-25-54l-44-20h-707c-13 2-26 6-38 12-13 5-25 14-36 26-11 15-20 31-27 48-7 16-11 34-12 51v378c1 13 4 26 9 39s11 26 20 38c11 8 23 15 36 21 12 6 25 10 38 11h717l44-26c8-16 13-34 13-54 0-19 6-37 20-53 9-7 19-12 29-15 10-4 22-4 35-2 9 4 17 9 25 15s14 13 18 22l6 50c-1 29-8 57-20 84-13 27-31 50-57 70-17 13-36 23-56 29-20 7-41 12-64 14z" />
    <path
       id="path4"
       class="fil1"
       d="m65687 1008c-67-4-127-32-178-83-35-45-57-97-66-157v-415c9-64 37-121 86-173 47-38 100-59 158-63h641c76 7 140 38 193 94 38 48 59 104 63 166v371c-4 78-35 144-93 200-45 36-96 56-154 60zm714-156c27-27 43-58 49-94v-387c-1-34-16-63-43-87-21-18-46-29-73-34h-651c-27 2-50 14-71 34-22 27-35 58-39 93v371c4 38 20 71 47 100 20 16 42 25 67 26h654z" />
    <path
       id="path6"
       class="fil1"
       d="m67184 1008c-18-2-33-11-47-26l-12-24v-792c6-44 29-61 69-49l938 688v-631l24-40c15-11 32-17 50-17 34 9 54 30 60 63v765c-9 53-38 70-86 51l-925-682v644c-7 17-19 32-37 44z" />
    <path
       id="path8"
       class="fil1"
       d="m69050 1008c-34-4-66-12-98-23-31-12-58-29-83-54-17-20-31-42-41-65-11-23-18-47-22-71v-428c6-35 16-68 29-100 14-31 34-60 61-87 22-20 45-35 71-45s53-16 83-18h700c31 4 61 12 88 23 28 11 53 30 76 57 18 22 30 47 37 74 6 26 8 54 6 82-4 10-10 18-16 26-7 8-15 14-24 18l-40 4-34-20c-13-16-19-35-18-57 1-23-7-41-25-54l-44-20h-706c-14 2-27 6-39 12-12 5-24 14-36 26-11 15-20 31-26 48-7 16-11 34-13 51v378c2 13 5 26 10 39 4 13 11 26 19 38 12 8 24 15 36 21s25 10 39 11h716c35-9 54-32 58-69l-1-150h-597c-24-6-39-13-43-22-5-8-9-17-12-27-4-10-4-22-2-36 9-33 28-50 57-49h672c36 4 56 25 59 63v227c-2 29-9 57-21 84s-31 50-56 70c-18 13-36 23-56 29-20 7-41 12-64 14z" />
    <path
       id="path10"
       class="fil1"
       d="m70561 1008c-18-2-34-11-47-26l-13-24v-388c13-31 32-47 56-49h789c35-5 65-22 89-50 14-21 22-42 24-64v-44c-2-31-16-57-40-79-22-18-48-29-77-34h-785c-28-8-46-24-56-49v-35c15-31 35-47 60-49h771c78 4 145 36 200 94 29 38 48 80 57 126v34l4 30c-3 60-23 114-61 163 41 27 70 61 88 103 13 32 20 65 22 101v177c-5 41-29 62-73 63-18-2-33-11-47-26l-14-31v-193c-4-29-17-55-39-77-20-16-42-24-67-26h-771v303c-6 17-19 32-36 44z" />
    <path
       id="path12"
       class="fil1"
       d="m72241 250-39-19c-7-9-12-19-15-29s-3-22-2-36c14-28 34-45 60-49h1022c38 6 57 29 59 70-2 9-4 17-7 25-4 7-9 15-16 21l-34 17zm4 758c-9-2-17-5-25-9-8-3-15-9-22-17l-13-24v-437c9-28 27-45 56-50h929l36 20c7 9 12 19 15 28 4 10 4 21 2 35l-17 30c-7 4-13 8-20 12-7 3-14 6-23 8h-848v270h954c36 6 55 30 57 71-7 36-28 57-63 63z" />
    <path
       id="path14"
       class="fil1"
       d="m74013 1008c-60-4-110-30-150-77-25-33-41-71-47-113v-43c10-23 21-38 31-44 11-7 27-9 49-7 33 9 49 26 49 51 0 24 6 45 17 63s28 30 51 36h694c36-6 67-23 94-50 11-18 18-37 22-59v-51c-1-31-16-57-43-79-20-16-43-26-70-31h-640c-78-4-146-35-205-93-26-34-43-70-49-110v-81c9-53 35-99 80-140 53-38 111-59 174-63h678c59 4 110 27 152 67 38 44 57 96 57 157-2 17-10 33-26 46-16 11-35 16-57 14-22-10-36-22-42-35-6-14-10-33-12-59-2-25-24-45-66-57h-692c-38 5-70 21-96 48-13 22-20 46-20 73 0 26 11 48 33 67 24 17 52 28 83 33h645c73 6 138 39 193 97 34 44 53 94 57 150v43c-4 71-34 133-89 184-52 38-109 59-171 63z" />
    <path
       id="path16"
       class="fil1"
       d="m75682 1008c-61-4-111-30-150-77-25-33-41-71-47-113v-43c10-23 20-38 31-44 10-7 27-9 49-7 32 9 49 26 49 51 0 24 5 45 17 63 11 18 28 30 51 36h694c35-6 66-23 93-50 11-18 19-37 23-59v-51c-2-31-16-57-43-79-20-16-44-26-70-31h-640c-79-4-147-35-205-93-27-34-43-70-49-110v-81c8-53 35-99 80-140 53-38 111-59 174-63h677c60 4 111 27 153 67 38 44 57 96 57 157-2 17-11 33-27 46-15 11-34 16-56 14-22-10-36-22-42-35-6-14-10-33-12-59-2-25-24-45-66-57h-692c-38 5-70 21-96 48-13 22-20 46-20 73 0 26 11 48 33 67 24 17 52 28 83 33h645c73 6 138 39 193 97 34 44 53 94 57 150v43c-4 71-34 133-90 184-51 38-108 59-170 63z" />
    <path
       id="path18"
       class="fil1"
       d="m77680 1008c-18-2-34-11-47-26l-14-27v-334l-500-410-3-10v-35c18-46 51-61 100-44l474 379 475-384c55-8 86 15 92 70-2 20-11 37-27 50l-481 384v337l-16 30c-16 13-34 20-53 20z" />
  </g>
  <path
     id="path22"
     stroke-width=".01"
     clip-rule="evenodd"
     class="fil2"
     fill-rule="evenodd"
     d="m26.142 52.393c-3.02 0.2-5.99-0.41-8.87-1.43-3.94-1.4-7.34-3.66-10.21-6.71-2.8-2.96-4.8-6.4-5.97-10.29-0.54-1.8-0.97-3.63-1-5.52-0.01-1.11-0.11-2.22-0.09-3.33 0.06-2.13 0.4-4.21 0.99-6.26 1.41-4.9 4.05-9.01 7.86-12.39 2.16-1.91 4.58-3.42 7.24-4.52 1.82-0.76 3.71-1.24 5.65-1.61 2.35-0.45 4.72-0.35 7.06-0.24 2.25 0.1 4.45 0.68 6.58 1.47 2.22 0.83 4.31 1.91 6.22 3.33 1.66 1.23 3.31 2.49 4.44 4.28 1.16 1.85 1.48 3.85 1.22 6.01-0.26 2.2-1.34 3.91-2.87 5.44-3.98 3.95-7.94 7.92-11.9 11.89-1.23 1.23-2.68 2.07-4.36 2.38-4.36 0.8-8.59-1.09-10.22-5.59-1.25-3.46-0.56-6.66 2-9.34 1.36-1.42 3.06-2.25 5.07-2.48 2.22-0.26 4.29 0.07 6.13 1.35 0.87 0.61 1.63 1.39 2.4 2.14 0.11 0.1 0.06 0.52-0.06 0.65-0.72 0.78-1.49 1.52-2.23 2.28-0.27 0.26-0.49 0.21-0.76-0.04-0.64-0.58-1.25-1.22-1.97-1.68-2.15-1.38-4.71-0.51-6.05 1.3-2.28 3.08-0.06 7.03 3.28 7.41 1.49 0.18 2.74-0.33 3.75-1.33 4.15-4.1 8.27-8.24 12.39-12.38 0.88-0.89 1.39-2 1.39-3.25 0.01-1.49-0.69-2.7-1.76-3.69-1.42-1.31-2.96-2.47-4.65-3.41-2.09-1.14-4.31-1.93-6.64-2.38-1.84-0.36-3.73-0.49-5.59-0.32-5.45 0.52-10.19 2.63-14.08 6.54-2.25 2.26-3.92 4.89-5.04 7.86-0.62 1.65-1.08 3.34-1.21 5.1-0.09 1.05-0.23 2.11-0.19 3.16 0.07 2.2 0.47 4.36 1.18 6.46 0.87 2.56 2.14 4.88 3.85 6.96 2.47 3.01 5.52 5.26 9.17 6.64 1.23 0.47 2.5 0.87 3.8 1.12 2 0.37 4.03 0.5 6.09 0.28 1.73-0.18 3.43-0.51 5.08-1.07 2.53-0.86 4.85-2.12 6.9-3.84 0.72-0.6 1.41-1.24 2.03-1.94 0.69-0.78 1.06-1.76 1.06-2.8 0.01-1.36-0.57-2.51-1.52-3.47-1.15-1.17-2.31-2.32-3.47-3.48-0.45-0.44-0.44-0.57 0.01-1.01 0.67-0.66 1.33-1.33 1.99-2 0.37-0.38 0.57-0.37 0.94 0 1.19 1.2 2.39 2.39 3.58 3.59 1.35 1.39 2.21 3.01 2.48 4.97 0.46 3.44-0.74 6.2-3.29 8.46-1.95 1.72-4.06 3.2-6.42 4.31-2.03 0.94-4.13 1.62-6.34 2.04-1.66 0.32-3.32 0.45-5.07 0.38z"
     style="image-rendering:optimizeQuality;shape-rendering:geometricPrecision" />
</g>


/&gt;<rect
   style="opacity:1;fill:#f2f2f2;fill-opacity:1;stroke:none;stroke-width:1.17433298;stroke-miterlimit:4;stroke-dasharray:none;stroke-opacity:1"
   id="rect4661"
   width="481.29694"
   height="384.82318"
   x="-86.293404"
   y="72.797935" />
<g
   id="g4611"
   transform="translate(-116.84046,-4.2877235)">
  <g
     style="clip-rule:evenodd;fill:#5b8790;fill-opacity:1;image-rendering:optimizeQuality;shape-rendering:geometricPrecision"
     transform="matrix(0.01167362,0,0,0.01676702,-640.70809,104.67875)"
     id="g4539">
    <path
       d="m 64004,1008 c -34,-4 -66,-12 -97,-23 -31,-12 -59,-29 -83,-54 -18,-20 -32,-42 -42,-65 -10,-23 -17,-47 -21,-71 V 367 c 5,-35 15,-68 29,-100 13,-31 33,-60 60,-87 22,-20 46,-35 71,-45 26,-10 54,-16 83,-18 h 700 c 32,4 61,12 89,23 28,11 53,30 76,57 17,22 29,47 36,74 7,26 9,54 6,82 -4,10 -9,18 -16,26 -7,8 -15,14 -24,18 l -39,4 -34,-20 c -14,-16 -20,-35 -18,-57 1,-23 -7,-41 -25,-54 l -44,-20 h -707 c -13,2 -26,6 -38,12 -13,5 -25,14 -36,26 -11,15 -20,31 -27,48 -7,16 -11,34 -12,51 v 378 c 1,13 4,26 9,39 5,13 11,26 20,38 11,8 23,15 36,21 12,6 25,10 38,11 h 717 l 44,-26 c 8,-16 13,-34 13,-54 0,-19 6,-37 20,-53 9,-7 19,-12 29,-15 10,-4 22,-4 35,-2 9,4 17,9 25,15 8,6 14,13 18,22 l 6,50 c -1,29 -8,57 -20,84 -13,27 -31,50 -57,70 -17,13 -36,23 -56,29 -20,7 -41,12 -64,14 z"
       class="fil1"
       id="path4521"
       inkscape:connector-curvature="0"
       style="fill:#5b8790;fill-opacity:1" />
    <path
       d="m 65687,1008 c -67,-4 -127,-32 -178,-83 -35,-45 -57,-97 -66,-157 V 353 c 9,-64 37,-121 86,-173 47,-38 100,-59 158,-63 h 641 c 76,7 140,38 193,94 38,48 59,104 63,166 v 371 c -4,78 -35,144 -93,200 -45,36 -96,56 -154,60 z m 714,-156 c 27,-27 43,-58 49,-94 V 371 c -1,-34 -16,-63 -43,-87 -21,-18 -46,-29 -73,-34 h -651 c -27,2 -50,14 -71,34 -22,27 -35,58 -39,93 v 371 c 4,38 20,71 47,100 20,16 42,25 67,26 h 654 z"
       class="fil1"
       id="path4523"
       inkscape:connector-curvature="0"
       style="fill:#5b8790;fill-opacity:1" />
    <path
       d="m 67184,1008 c -18,-2 -33,-11 -47,-26 l -12,-24 V 166 c 6,-44 29,-61 69,-49 l 938,688 V 174 l 24,-40 c 15,-11 32,-17 50,-17 34,9 54,30 60,63 v 765 c -9,53 -38,70 -86,51 l -925,-682 v 644 c -7,17 -19,32 -37,44 z"
       class="fil1"
       id="path4525"
       inkscape:connector-curvature="0"
       style="fill:#5b8790;fill-opacity:1" />
    <path
       d="m 69050,1008 c -34,-4 -66,-12 -98,-23 -31,-12 -58,-29 -83,-54 -17,-20 -31,-42 -41,-65 -11,-23 -18,-47 -22,-71 V 367 c 6,-35 16,-68 29,-100 14,-31 34,-60 61,-87 22,-20 45,-35 71,-45 26,-10 53,-16 83,-18 h 700 c 31,4 61,12 88,23 28,11 53,30 76,57 18,22 30,47 37,74 6,26 8,54 6,82 -4,10 -10,18 -16,26 -7,8 -15,14 -24,18 l -40,4 -34,-20 c -13,-16 -19,-35 -18,-57 1,-23 -7,-41 -25,-54 l -44,-20 h -706 c -14,2 -27,6 -39,12 -12,5 -24,14 -36,26 -11,15 -20,31 -26,48 -7,16 -11,34 -13,51 v 378 c 2,13 5,26 10,39 4,13 11,26 19,38 12,8 24,15 36,21 12,6 25,10 39,11 h 716 c 35,-9 54,-32 58,-69 l -1,-150 h -597 c -24,-6 -39,-13 -43,-22 -5,-8 -9,-17 -12,-27 -4,-10 -4,-22 -2,-36 9,-33 28,-50 57,-49 h 672 c 36,4 56,25 59,63 v 227 c -2,29 -9,57 -21,84 -12,27 -31,50 -56,70 -18,13 -36,23 -56,29 -20,7 -41,12 -64,14 z"
       class="fil1"
       id="path4527"
       inkscape:connector-curvature="0"
       style="fill:#5b8790;fill-opacity:1" />
    <path
       d="m 70561,1008 c -18,-2 -34,-11 -47,-26 l -13,-24 V 570 c 13,-31 32,-47 56,-49 h 789 c 35,-5 65,-22 89,-50 14,-21 22,-42 24,-64 v -44 c -2,-31 -16,-57 -40,-79 -22,-18 -48,-29 -77,-34 h -785 c -28,-8 -46,-24 -56,-49 v -35 c 15,-31 35,-47 60,-49 h 771 c 78,4 145,36 200,94 29,38 48,80 57,126 v 34 l 4,30 c -3,60 -23,114 -61,163 41,27 70,61 88,103 13,32 20,65 22,101 v 177 c -5,41 -29,62 -73,63 -18,-2 -33,-11 -47,-26 l -14,-31 V 758 c -4,-29 -17,-55 -39,-77 -20,-16 -42,-24 -67,-26 h -771 v 303 c -6,17 -19,32 -36,44 z"
       class="fil1"
       id="path4529"
       inkscape:connector-curvature="0"
       style="fill:#5b8790;fill-opacity:1" />
    <path
       d="m 72241,250 -39,-19 c -7,-9 -12,-19 -15,-29 -3,-10 -3,-22 -2,-36 14,-28 34,-45 60,-49 h 1022 c 38,6 57,29 59,70 -2,9 -4,17 -7,25 -4,7 -9,15 -16,21 l -34,17 z m 4,758 c -9,-2 -17,-5 -25,-9 -8,-3 -15,-9 -22,-17 l -13,-24 V 521 c 9,-28 27,-45 56,-50 h 929 l 36,20 c 7,9 12,19 15,28 4,10 4,21 2,35 l -17,30 c -7,4 -13,8 -20,12 -7,3 -14,6 -23,8 h -848 v 270 h 954 c 36,6 55,30 57,71 -7,36 -28,57 -63,63 z"
       class="fil1"
       id="path4531"
       inkscape:connector-curvature="0"
       style="fill:#5b8790;fill-opacity:1" />
    <path
       d="m 74013,1008 c -60,-4 -110,-30 -150,-77 -25,-33 -41,-71 -47,-113 v -43 c 10,-23 21,-38 31,-44 11,-7 27,-9 49,-7 33,9 49,26 49,51 0,24 6,45 17,63 11,18 28,30 51,36 h 694 c 36,-6 67,-23 94,-50 11,-18 18,-37 22,-59 v -51 c -1,-31 -16,-57 -43,-79 -20,-16 -43,-26 -70,-31 h -640 c -78,-4 -146,-35 -205,-93 -26,-34 -43,-70 -49,-110 v -81 c 9,-53 35,-99 80,-140 53,-38 111,-59 174,-63 h 678 c 59,4 110,27 152,67 38,44 57,96 57,157 -2,17 -10,33 -26,46 -16,11 -35,16 -57,14 -22,-10 -36,-22 -42,-35 -6,-14 -10,-33 -12,-59 -2,-25 -24,-45 -66,-57 h -692 c -38,5 -70,21 -96,48 -13,22 -20,46 -20,73 0,26 11,48 33,67 24,17 52,28 83,33 h 645 c 73,6 138,39 193,97 34,44 53,94 57,150 v 43 c -4,71 -34,133 -89,184 -52,38 -109,59 -171,63 z"
       class="fil1"
       id="path4533"
       inkscape:connector-curvature="0"
       style="fill:#5b8790;fill-opacity:1" />
    <path
       d="m 75682,1008 c -61,-4 -111,-30 -150,-77 -25,-33 -41,-71 -47,-113 v -43 c 10,-23 20,-38 31,-44 10,-7 27,-9 49,-7 32,9 49,26 49,51 0,24 5,45 17,63 11,18 28,30 51,36 h 694 c 35,-6 66,-23 93,-50 11,-18 19,-37 23,-59 v -51 c -2,-31 -16,-57 -43,-79 -20,-16 -44,-26 -70,-31 h -640 c -79,-4 -147,-35 -205,-93 -27,-34 -43,-70 -49,-110 v -81 c 8,-53 35,-99 80,-140 53,-38 111,-59 174,-63 h 677 c 60,4 111,27 153,67 38,44 57,96 57,157 -2,17 -11,33 -27,46 -15,11 -34,16 -56,14 -22,-10 -36,-22 -42,-35 -6,-14 -10,-33 -12,-59 -2,-25 -24,-45 -66,-57 h -692 c -38,5 -70,21 -96,48 -13,22 -20,46 -20,73 0,26 11,48 33,67 24,17 52,28 83,33 h 645 c 73,6 138,39 193,97 34,44 53,94 57,150 v 43 c -4,71 -34,133 -90,184 -51,38 -108,59 -170,63 z"
       class="fil1"
       id="path4535"
       inkscape:connector-curvature="0"
       style="fill:#5b8790;fill-opacity:1" />
    <path
       d="m 77680,1008 c -18,-2 -34,-11 -47,-26 l -14,-27 V 621 l -500,-410 -3,-10 v -35 c 18,-46 51,-61 100,-44 l 474,379 475,-384 c 55,-8 86,15 92,70 -2,20 -11,37 -27,50 l -481,384 v 337 l -16,30 c -16,13 -34,20 -53,20 z"
       class="fil1"
       id="path4537"
       inkscape:connector-curvature="0"
       style="fill:#5b8790;fill-opacity:1" />
  </g>
  <path
     style="clip-rule:evenodd;opacity:1;fill:#5b8790;fill-opacity:1;fill-rule:evenodd;stroke-width:0.0102146;image-rendering:optimizeQuality;shape-rendering:geometricPrecision"
     d="m 70.116234,140.87975 c -3.084811,0.2043 -6.118549,-0.4188 -9.060354,-1.46068 -4.024555,-1.43005 -7.497521,-3.73855 -10.429112,-6.854 -2.860089,-3.02353 -4.90301,-6.53735 -6.098119,-10.51083 -0.551589,-1.83863 -0.990817,-3.7079 -1.02146,-5.63846 -0.01022,-1.13383 -0.112361,-2.26765 -0.09193,-3.40146 0.06129,-2.17572 0.408584,-4.30036 1.011246,-6.39435 1.440259,-5.00516 4.136915,-9.20336 8.028679,-12.655897 2.206355,-1.95099 4.678289,-3.493395 7.395374,-4.617001 1.859059,-0.776311 3.789618,-1.266611 5.771252,-1.644552 2.400432,-0.459657 4.821294,-0.357511 7.211511,-0.245151 2.298286,0.102148 4.5455,0.694594 6.721211,1.501548 2.267642,0.847812 4.402494,1.950989 6.353484,3.401463 1.695623,1.256397 3.381034,2.543437 4.535284,4.371851 1.184894,1.889702 1.511762,3.932619 1.246182,6.138979 -0.26558,2.24721 -1.368757,3.99391 -2.931591,5.55674 -4.065414,4.03478 -8.110397,8.08998 -12.155381,12.14517 -1.256396,1.25639 -2.737514,2.11442 -4.453567,2.43108 -4.453568,0.81717 -8.774346,-1.11339 -10.439326,-5.70997 -1.276827,-3.53426 -0.572019,-6.80293 2.042921,-9.54044 1.389186,-1.45048 3.125669,-2.29829 5.178804,-2.53322 2.267643,-0.26558 4.382066,0.0715 6.261553,1.37897 0.888671,0.6231 1.664981,1.41983 2.451505,2.18593 0.11236,0.10218 0.06129,0.53115 -0.06129,0.66394 -0.735451,0.79675 -1.521976,1.55262 -2.277857,2.32893 -0.275794,0.26559 -0.500515,0.21451 -0.776309,-0.0409 -0.653735,-0.59244 -1.276825,-1.24618 -2.012278,-1.71604 -2.196139,-1.40963 -4.811078,-0.52095 -6.179836,1.32789 -2.328929,3.14609 -0.06129,7.18087 3.350391,7.56902 1.521977,0.18386 2.798802,-0.33708 3.830477,-1.35854 4.239061,-4.18799 8.447478,-8.41683 12.655895,-12.64568 0.898886,-0.9091 1.419831,-2.04292 1.419831,-3.31975 0.01022,-1.52197 -0.704808,-2.757942 -1.797772,-3.769187 C 84.345179,96.48704 82.77213,95.302146 81.045862,94.341972 78.91101,93.177507 76.643366,92.370554 74.263364,91.910897 72.383876,91.54317 70.453317,91.410381 68.5534,91.58403 c -5.566959,0.531159 -10.408682,2.686441 -14.382164,6.680351 -2.298286,2.308499 -4.004124,4.994949 -5.148161,8.028679 -0.633305,1.68541 -1.103177,3.41167 -1.235967,5.20945 -0.09193,1.07253 -0.234936,2.15529 -0.194077,3.22781 0.0715,2.24721 0.480086,4.45357 1.205323,6.59864 0.888671,2.61494 2.185926,4.98472 3.932623,7.10936 2.523007,3.07459 5.638462,5.37289 9.366793,6.7825 1.256396,0.48008 2.553651,0.88868 3.881549,1.14404 2.042921,0.37794 4.116486,0.51073 6.220695,0.28601 1.767126,-0.18387 3.50361,-0.52095 5.18902,-1.09296 2.584294,-0.87846 4.954083,-2.1655 7.048077,-3.92241 0.735451,-0.61288 1.440259,-1.26662 2.073564,-1.98164 0.704808,-0.79674 1.082749,-1.79777 1.082749,-2.86009 0.01022,-1.38919 -0.582233,-2.56386 -1.552621,-3.54447 -1.17468,-1.1951 -2.359573,-2.36978 -3.544467,-3.55468 -0.459658,-0.44944 -0.449443,-0.58223 0.01022,-1.03167 0.684378,-0.67417 1.358542,-1.35855 2.032706,-2.04293 0.377941,-0.38815 0.582232,-0.37794 0.960173,0 1.215538,1.22575 2.441291,2.4413 3.656828,3.66704 1.378972,1.41984 2.257428,3.07461 2.533222,5.07667 0.469872,3.51382 -0.755881,6.33306 -3.360605,8.64155 -1.991848,1.75691 -4.147129,3.26867 -6.557777,4.4025 -2.073564,0.96017 -4.218631,1.65477 -6.476058,2.08377 -1.695625,0.32687 -3.391249,0.45966 -5.178806,0.38816 z"
     class="fil2"
     id="path4541"
     inkscape:connector-curvature="0" />
</g>
<g
   id="g4659"
   transform="translate(-105.58519,-49.30882)">
  <g
     id="g4631"
     transform="matrix(0.01167362,0,0,0.01676702,-654.10723,215.62359)"
     style="clip-rule:evenodd;fill:#ffffff;image-rendering:optimizeQuality;shape-rendering:geometricPrecision">
    <path
       style="fill:#ffffff"
       inkscape:connector-curvature="0"
       id="path4613"
       class="fil1"
       d="m 64004,1008 c -34,-4 -66,-12 -97,-23 -31,-12 -59,-29 -83,-54 -18,-20 -32,-42 -42,-65 -10,-23 -17,-47 -21,-71 V 367 c 5,-35 15,-68 29,-100 13,-31 33,-60 60,-87 22,-20 46,-35 71,-45 26,-10 54,-16 83,-18 h 700 c 32,4 61,12 89,23 28,11 53,30 76,57 17,22 29,47 36,74 7,26 9,54 6,82 -4,10 -9,18 -16,26 -7,8 -15,14 -24,18 l -39,4 -34,-20 c -14,-16 -20,-35 -18,-57 1,-23 -7,-41 -25,-54 l -44,-20 h -707 c -13,2 -26,6 -38,12 -13,5 -25,14 -36,26 -11,15 -20,31 -27,48 -7,16 -11,34 -12,51 v 378 c 1,13 4,26 9,39 5,13 11,26 20,38 11,8 23,15 36,21 12,6 25,10 38,11 h 717 l 44,-26 c 8,-16 13,-34 13,-54 0,-19 6,-37 20,-53 9,-7 19,-12 29,-15 10,-4 22,-4 35,-2 9,4 17,9 25,15 8,6 14,13 18,22 l 6,50 c -1,29 -8,57 -20,84 -13,27 -31,50 -57,70 -17,13 -36,23 -56,29 -20,7 -41,12 -64,14 z" />
    <path
       style="fill:#ffffff"
       inkscape:connector-curvature="0"
       id="path4615"
       class="fil1"
       d="m 65687,1008 c -67,-4 -127,-32 -178,-83 -35,-45 -57,-97 -66,-157 V 353 c 9,-64 37,-121 86,-173 47,-38 100,-59 158,-63 h 641 c 76,7 140,38 193,94 38,48 59,104 63,166 v 371 c -4,78 -35,144 -93,200 -45,36 -96,56 -154,60 z m 714,-156 c 27,-27 43,-58 49,-94 V 371 c -1,-34 -16,-63 -43,-87 -21,-18 -46,-29 -73,-34 h -651 c -27,2 -50,14 -71,34 -22,27 -35,58 -39,93 v 371 c 4,38 20,71 47,100 20,16 42,25 67,26 h 654 z" />
    <path
       style="fill:#ffffff"
       inkscape:connector-curvature="0"
       id="path4617"
       class="fil1"
       d="m 67184,1008 c -18,-2 -33,-11 -47,-26 l -12,-24 V 166 c 6,-44 29,-61 69,-49 l 938,688 V 174 l 24,-40 c 15,-11 32,-17 50,-17 34,9 54,30 60,63 v 765 c -9,53 -38,70 -86,51 l -925,-682 v 644 c -7,17 -19,32 -37,44 z" />
    <path
       style="fill:#ffffff"
       inkscape:connector-curvature="0"
       id="path4619"
       class="fil1"
       d="m 69050,1008 c -34,-4 -66,-12 -98,-23 -31,-12 -58,-29 -83,-54 -17,-20 -31,-42 -41,-65 -11,-23 -18,-47 -22,-71 V 367 c 6,-35 16,-68 29,-100 14,-31 34,-60 61,-87 22,-20 45,-35 71,-45 26,-10 53,-16 83,-18 h 700 c 31,4 61,12 88,23 28,11 53,30 76,57 18,22 30,47 37,74 6,26 8,54 6,82 -4,10 -10,18 -16,26 -7,8 -15,14 -24,18 l -40,4 -34,-20 c -13,-16 -19,-35 -18,-57 1,-23 -7,-41 -25,-54 l -44,-20 h -706 c -14,2 -27,6 -39,12 -12,5 -24,14 -36,26 -11,15 -20,31 -26,48 -7,16 -11,34 -13,51 v 378 c 2,13 5,26 10,39 4,13 11,26 19,38 12,8 24,15 36,21 12,6 25,10 39,11 h 716 c 35,-9 54,-32 58,-69 l -1,-150 h -597 c -24,-6 -39,-13 -43,-22 -5,-8 -9,-17 -12,-27 -4,-10 -4,-22 -2,-36 9,-33 28,-50 57,-49 h 672 c 36,4 56,25 59,63 v 227 c -2,29 -9,57 -21,84 -12,27 -31,50 -56,70 -18,13 -36,23 -56,29 -20,7 -41,12 -64,14 z" />
    <path
       style="fill:#ffffff"
       inkscape:connector-curvature="0"
       id="path4621"
       class="fil1"
       d="m 70561,1008 c -18,-2 -34,-11 -47,-26 l -13,-24 V 570 c 13,-31 32,-47 56,-49 h 789 c 35,-5 65,-22 89,-50 14,-21 22,-42 24,-64 v -44 c -2,-31 -16,-57 -40,-79 -22,-18 -48,-29 -77,-34 h -785 c -28,-8 -46,-24 -56,-49 v -35 c 15,-31 35,-47 60,-49 h 771 c 78,4 145,36 200,94 29,38 48,80 57,126 v 34 l 4,30 c -3,60 -23,114 -61,163 41,27 70,61 88,103 13,32 20,65 22,101 v 177 c -5,41 -29,62 -73,63 -18,-2 -33,-11 -47,-26 l -14,-31 V 758 c -4,-29 -17,-55 -39,-77 -20,-16 -42,-24 -67,-26 h -771 v 303 c -6,17 -19,32 -36,44 z" />
    <path
       style="fill:#ffffff"
       inkscape:connector-curvature="0"
       id="path4623"
       class="fil1"
       d="m 72241,250 -39,-19 c -7,-9 -12,-19 -15,-29 -3,-10 -3,-22 -2,-36 14,-28 34,-45 60,-49 h 1022 c 38,6 57,29 59,70 -2,9 -4,17 -7,25 -4,7 -9,15 -16,21 l -34,17 z m 4,758 c -9,-2 -17,-5 -25,-9 -8,-3 -15,-9 -22,-17 l -13,-24 V 521 c 9,-28 27,-45 56,-50 h 929 l 36,20 c 7,9 12,19 15,28 4,10 4,21 2,35 l -17,30 c -7,4 -13,8 -20,12 -7,3 -14,6 -23,8 h -848 v 270 h 954 c 36,6 55,30 57,71 -7,36 -28,57 -63,63 z" />
    <path
       style="fill:#ffffff"
       inkscape:connector-curvature="0"
       id="path4625"
       class="fil1"
       d="m 74013,1008 c -60,-4 -110,-30 -150,-77 -25,-33 -41,-71 -47,-113 v -43 c 10,-23 21,-38 31,-44 11,-7 27,-9 49,-7 33,9 49,26 49,51 0,24 6,45 17,63 11,18 28,30 51,36 h 694 c 36,-6 67,-23 94,-50 11,-18 18,-37 22,-59 v -51 c -1,-31 -16,-57 -43,-79 -20,-16 -43,-26 -70,-31 h -640 c -78,-4 -146,-35 -205,-93 -26,-34 -43,-70 -49,-110 v -81 c 9,-53 35,-99 80,-140 53,-38 111,-59 174,-63 h 678 c 59,4 110,27 152,67 38,44 57,96 57,157 -2,17 -10,33 -26,46 -16,11 -35,16 -57,14 -22,-10 -36,-22 -42,-35 -6,-14 -10,-33 -12,-59 -2,-25 -24,-45 -66,-57 h -692 c -38,5 -70,21 -96,48 -13,22 -20,46 -20,73 0,26 11,48 33,67 24,17 52,28 83,33 h 645 c 73,6 138,39 193,97 34,44 53,94 57,150 v 43 c -4,71 -34,133 -89,184 -52,38 -109,59 -171,63 z" />
    <path
       style="fill:#ffffff"
       inkscape:connector-curvature="0"
       id="path4627"
       class="fil1"
       d="m 75682,1008 c -61,-4 -111,-30 -150,-77 -25,-33 -41,-71 -47,-113 v -43 c 10,-23 20,-38 31,-44 10,-7 27,-9 49,-7 32,9 49,26 49,51 0,24 5,45 17,63 11,18 28,30 51,36 h 694 c 35,-6 66,-23 93,-50 11,-18 19,-37 23,-59 v -51 c -2,-31 -16,-57 -43,-79 -20,-16 -44,-26 -70,-31 h -640 c -79,-4 -147,-35 -205,-93 -27,-34 -43,-70 -49,-110 v -81 c 8,-53 35,-99 80,-140 53,-38 111,-59 174,-63 h 677 c 60,4 111,27 153,67 38,44 57,96 57,157 -2,17 -11,33 -27,46 -15,11 -34,16 -56,14 -22,-10 -36,-22 -42,-35 -6,-14 -10,-33 -12,-59 -2,-25 -24,-45 -66,-57 h -692 c -38,5 -70,21 -96,48 -13,22 -20,46 -20,73 0,26 11,48 33,67 24,17 52,28 83,33 h 645 c 73,6 138,39 193,97 34,44 53,94 57,150 v 43 c -4,71 -34,133 -90,184 -51,38 -108,59 -170,63 z" />
    <path
       style="fill:#ffffff"
       inkscape:connector-curvature="0"
       id="path4629"
       class="fil1"
       d="m 77680,1008 c -18,-2 -34,-11 -47,-26 l -14,-27 V 621 l -500,-410 -3,-10 v -35 c 18,-46 51,-61 100,-44 l 474,379 475,-384 c 55,-8 86,15 92,70 -2,20 -11,37 -27,50 l -481,384 v 337 l -16,30 c -16,13 -34,20 -53,20 z" />
  </g>
  <path
     inkscape:connector-curvature="0"
     id="path4633"
     class="fil2"
     d="m 56.717098,251.82459 c -3.084811,0.2043 -6.118549,-0.4188 -9.060354,-1.46068 -4.024555,-1.43005 -7.497521,-3.73855 -10.429112,-6.854 -2.860089,-3.02353 -4.90301,-6.53735 -6.098119,-10.51083 -0.551589,-1.83863 -0.990817,-3.7079 -1.02146,-5.63846 -0.01022,-1.13383 -0.112361,-2.26765 -0.09193,-3.40146 0.06129,-2.17572 0.408584,-4.30036 1.011246,-6.39435 1.440259,-5.00516 4.136915,-9.20336 8.028679,-12.6559 2.206355,-1.95099 4.678289,-3.49339 7.395374,-4.617 1.859059,-0.77631 3.789618,-1.26661 5.771252,-1.64455 2.400432,-0.45966 4.821294,-0.35751 7.211511,-0.24515 2.298286,0.10215 4.5455,0.69459 6.721211,1.50155 2.267642,0.84781 4.402494,1.95099 6.353484,3.40146 1.695623,1.2564 3.381034,2.54344 4.535284,4.37185 1.184894,1.8897 1.511762,3.93262 1.246182,6.13898 -0.26558,2.24721 -1.368757,3.99391 -2.931591,5.55674 -4.065414,4.03478 -8.110397,8.08998 -12.155381,12.14517 -1.256396,1.25639 -2.737514,2.11442 -4.453567,2.43108 -4.453568,0.81717 -8.774346,-1.11339 -10.439326,-5.70997 -1.276827,-3.53426 -0.572019,-6.80293 2.042921,-9.54044 1.389186,-1.45048 3.125669,-2.29829 5.178804,-2.53322 2.267643,-0.26558 4.382066,0.0715 6.261553,1.37897 0.888671,0.6231 1.664981,1.41983 2.451505,2.18593 0.11236,0.10218 0.06129,0.53115 -0.06129,0.66394 -0.735451,0.79675 -1.521976,1.55262 -2.277857,2.32893 -0.275794,0.26559 -0.500515,0.21451 -0.776309,-0.0409 -0.653735,-0.59244 -1.276825,-1.24618 -2.012278,-1.71604 -2.196139,-1.40963 -4.811078,-0.52095 -6.179836,1.32789 -2.328929,3.14609 -0.06129,7.18087 3.350391,7.56902 1.521977,0.18386 2.798802,-0.33708 3.830477,-1.35854 4.239061,-4.18799 8.447478,-8.41683 12.655895,-12.64568 0.898886,-0.9091 1.419831,-2.04292 1.419831,-3.31975 0.01022,-1.52197 -0.704808,-2.75794 -1.797772,-3.76919 -1.450473,-1.33811 -3.023522,-2.523 -4.74979,-3.48318 -2.134852,-1.16446 -4.402496,-1.97142 -6.782498,-2.43107 -1.879488,-0.36773 -3.810047,-0.50052 -5.709964,-0.32687 -5.566959,0.53116 -10.408682,2.68644 -14.382164,6.68035 -2.298286,2.3085 -4.004124,4.99495 -5.148161,8.02868 -0.633305,1.68541 -1.103177,3.41167 -1.235967,5.20945 -0.09193,1.07253 -0.234936,2.15529 -0.194077,3.22781 0.0715,2.24721 0.480086,4.45357 1.205323,6.59864 0.888671,2.61494 2.185926,4.98472 3.932623,7.10936 2.523007,3.07459 5.638462,5.37289 9.366793,6.7825 1.256396,0.48008 2.553651,0.88868 3.881549,1.14404 2.042921,0.37794 4.116486,0.51073 6.220695,0.28601 1.767126,-0.18387 3.50361,-0.52095 5.18902,-1.09296 2.584294,-0.87846 4.954083,-2.1655 7.048077,-3.92241 0.735451,-0.61288 1.440259,-1.26662 2.073564,-1.98164 0.704808,-0.79674 1.082749,-1.79777 1.082749,-2.86009 0.01022,-1.38919 -0.582233,-2.56386 -1.552621,-3.54447 -1.17468,-1.1951 -2.359573,-2.36978 -3.544467,-3.55468 -0.459658,-0.44944 -0.449443,-0.58223 0.01022,-1.03167 0.684378,-0.67417 1.358542,-1.35855 2.032706,-2.04293 0.377941,-0.38815 0.582232,-0.37794 0.960173,0 1.215538,1.22575 2.441291,2.4413 3.656828,3.66704 1.378972,1.41984 2.257428,3.07461 2.533222,5.07667 0.469872,3.51382 -0.755881,6.33306 -3.360605,8.64155 -1.991848,1.75691 -4.147129,3.26867 -6.557777,4.4025 -2.073564,0.96017 -4.218631,1.65477 -6.476058,2.08377 -1.695625,0.32687 -3.391249,0.45966 -5.178806,0.38816 z"
     style="clip-rule:evenodd;opacity:1;fill:#5b8790;fill-opacity:1;fill-rule:evenodd;stroke-width:0.0102146;image-rendering:optimizeQuality;shape-rendering:geometricPrecision" />
</g>
<g
   transform="translate(-106.65713,13.935101)"
   id="g4685">
  <g
     style="clip-rule:evenodd;fill:#ffffff;image-rendering:optimizeQuality;shape-rendering:geometricPrecision"
     transform="matrix(0.01167362,0,0,0.01676702,-654.10723,215.62359)"
     id="g4681">
    <path
       d="m 64004,1008 c -34,-4 -66,-12 -97,-23 -31,-12 -59,-29 -83,-54 -18,-20 -32,-42 -42,-65 -10,-23 -17,-47 -21,-71 V 367 c 5,-35 15,-68 29,-100 13,-31 33,-60 60,-87 22,-20 46,-35 71,-45 26,-10 54,-16 83,-18 h 700 c 32,4 61,12 89,23 28,11 53,30 76,57 17,22 29,47 36,74 7,26 9,54 6,82 -4,10 -9,18 -16,26 -7,8 -15,14 -24,18 l -39,4 -34,-20 c -14,-16 -20,-35 -18,-57 1,-23 -7,-41 -25,-54 l -44,-20 h -707 c -13,2 -26,6 -38,12 -13,5 -25,14 -36,26 -11,15 -20,31 -27,48 -7,16 -11,34 -12,51 v 378 c 1,13 4,26 9,39 5,13 11,26 20,38 11,8 23,15 36,21 12,6 25,10 38,11 h 717 l 44,-26 c 8,-16 13,-34 13,-54 0,-19 6,-37 20,-53 9,-7 19,-12 29,-15 10,-4 22,-4 35,-2 9,4 17,9 25,15 8,6 14,13 18,22 l 6,50 c -1,29 -8,57 -20,84 -13,27 -31,50 -57,70 -17,13 -36,23 -56,29 -20,7 -41,12 -64,14 z"
       class="fil1"
       id="path4663"
       inkscape:connector-curvature="0"
       style="fill:#ffffff" />
    <path
       d="m 65687,1008 c -67,-4 -127,-32 -178,-83 -35,-45 -57,-97 -66,-157 V 353 c 9,-64 37,-121 86,-173 47,-38 100,-59 158,-63 h 641 c 76,7 140,38 193,94 38,48 59,104 63,166 v 371 c -4,78 -35,144 -93,200 -45,36 -96,56 -154,60 z m 714,-156 c 27,-27 43,-58 49,-94 V 371 c -1,-34 -16,-63 -43,-87 -21,-18 -46,-29 -73,-34 h -651 c -27,2 -50,14 -71,34 -22,27 -35,58 -39,93 v 371 c 4,38 20,71 47,100 20,16 42,25 67,26 h 654 z"
       class="fil1"
       id="path4665"
       inkscape:connector-curvature="0"
       style="fill:#ffffff" />
    <path
       d="m 67184,1008 c -18,-2 -33,-11 -47,-26 l -12,-24 V 166 c 6,-44 29,-61 69,-49 l 938,688 V 174 l 24,-40 c 15,-11 32,-17 50,-17 34,9 54,30 60,63 v 765 c -9,53 -38,70 -86,51 l -925,-682 v 644 c -7,17 -19,32 -37,44 z"
       class="fil1"
       id="path4667"
       inkscape:connector-curvature="0"
       style="fill:#ffffff" />
    <path
       d="m 69050,1008 c -34,-4 -66,-12 -98,-23 -31,-12 -58,-29 -83,-54 -17,-20 -31,-42 -41,-65 -11,-23 -18,-47 -22,-71 V 367 c 6,-35 16,-68 29,-100 14,-31 34,-60 61,-87 22,-20 45,-35 71,-45 26,-10 53,-16 83,-18 h 700 c 31,4 61,12 88,23 28,11 53,30 76,57 18,22 30,47 37,74 6,26 8,54 6,82 -4,10 -10,18 -16,26 -7,8 -15,14 -24,18 l -40,4 -34,-20 c -13,-16 -19,-35 -18,-57 1,-23 -7,-41 -25,-54 l -44,-20 h -706 c -14,2 -27,6 -39,12 -12,5 -24,14 -36,26 -11,15 -20,31 -26,48 -7,16 -11,34 -13,51 v 378 c 2,13 5,26 10,39 4,13 11,26 19,38 12,8 24,15 36,21 12,6 25,10 39,11 h 716 c 35,-9 54,-32 58,-69 l -1,-150 h -597 c -24,-6 -39,-13 -43,-22 -5,-8 -9,-17 -12,-27 -4,-10 -4,-22 -2,-36 9,-33 28,-50 57,-49 h 672 c 36,4 56,25 59,63 v 227 c -2,29 -9,57 -21,84 -12,27 -31,50 -56,70 -18,13 -36,23 -56,29 -20,7 -41,12 -64,14 z"
       class="fil1"
       id="path4669"
       inkscape:connector-curvature="0"
       style="fill:#ffffff" />
    <path
       d="m 70561,1008 c -18,-2 -34,-11 -47,-26 l -13,-24 V 570 c 13,-31 32,-47 56,-49 h 789 c 35,-5 65,-22 89,-50 14,-21 22,-42 24,-64 v -44 c -2,-31 -16,-57 -40,-79 -22,-18 -48,-29 -77,-34 h -785 c -28,-8 -46,-24 -56,-49 v -35 c 15,-31 35,-47 60,-49 h 771 c 78,4 145,36 200,94 29,38 48,80 57,126 v 34 l 4,30 c -3,60 -23,114 -61,163 41,27 70,61 88,103 13,32 20,65 22,101 v 177 c -5,41 -29,62 -73,63 -18,-2 -33,-11 -47,-26 l -14,-31 V 758 c -4,-29 -17,-55 -39,-77 -20,-16 -42,-24 -67,-26 h -771 v 303 c -6,17 -19,32 -36,44 z"
       class="fil1"
       id="path4671"
       inkscape:connector-curvature="0"
       style="fill:#ffffff" />
    <path
       d="m 72241,250 -39,-19 c -7,-9 -12,-19 -15,-29 -3,-10 -3,-22 -2,-36 14,-28 34,-45 60,-49 h 1022 c 38,6 57,29 59,70 -2,9 -4,17 -7,25 -4,7 -9,15 -16,21 l -34,17 z m 4,758 c -9,-2 -17,-5 -25,-9 -8,-3 -15,-9 -22,-17 l -13,-24 V 521 c 9,-28 27,-45 56,-50 h 929 l 36,20 c 7,9 12,19 15,28 4,10 4,21 2,35 l -17,30 c -7,4 -13,8 -20,12 -7,3 -14,6 -23,8 h -848 v 270 h 954 c 36,6 55,30 57,71 -7,36 -28,57 -63,63 z"
       class="fil1"
       id="path4673"
       inkscape:connector-curvature="0"
       style="fill:#ffffff" />
    <path
       d="m 74013,1008 c -60,-4 -110,-30 -150,-77 -25,-33 -41,-71 -47,-113 v -43 c 10,-23 21,-38 31,-44 11,-7 27,-9 49,-7 33,9 49,26 49,51 0,24 6,45 17,63 11,18 28,30 51,36 h 694 c 36,-6 67,-23 94,-50 11,-18 18,-37 22,-59 v -51 c -1,-31 -16,-57 -43,-79 -20,-16 -43,-26 -70,-31 h -640 c -78,-4 -146,-35 -205,-93 -26,-34 -43,-70 -49,-110 v -81 c 9,-53 35,-99 80,-140 53,-38 111,-59 174,-63 h 678 c 59,4 110,27 152,67 38,44 57,96 57,157 -2,17 -10,33 -26,46 -16,11 -35,16 -57,14 -22,-10 -36,-22 -42,-35 -6,-14 -10,-33 -12,-59 -2,-25 -24,-45 -66,-57 h -692 c -38,5 -70,21 -96,48 -13,22 -20,46 -20,73 0,26 11,48 33,67 24,17 52,28 83,33 h 645 c 73,6 138,39 193,97 34,44 53,94 57,150 v 43 c -4,71 -34,133 -89,184 -52,38 -109,59 -171,63 z"
       class="fil1"
       id="path4675"
       inkscape:connector-curvature="0"
       style="fill:#ffffff" />
    <path
       d="m 75682,1008 c -61,-4 -111,-30 -150,-77 -25,-33 -41,-71 -47,-113 v -43 c 10,-23 20,-38 31,-44 10,-7 27,-9 49,-7 32,9 49,26 49,51 0,24 5,45 17,63 11,18 28,30 51,36 h 694 c 35,-6 66,-23 93,-50 11,-18 19,-37 23,-59 v -51 c -2,-31 -16,-57 -43,-79 -20,-16 -44,-26 -70,-31 h -640 c -79,-4 -147,-35 -205,-93 -27,-34 -43,-70 -49,-110 v -81 c 8,-53 35,-99 80,-140 53,-38 111,-59 174,-63 h 677 c 60,4 111,27 153,67 38,44 57,96 57,157 -2,17 -11,33 -27,46 -15,11 -34,16 -56,14 -22,-10 -36,-22 -42,-35 -6,-14 -10,-33 -12,-59 -2,-25 -24,-45 -66,-57 h -692 c -38,5 -70,21 -96,48 -13,22 -20,46 -20,73 0,26 11,48 33,67 24,17 52,28 83,33 h 645 c 73,6 138,39 193,97 34,44 53,94 57,150 v 43 c -4,71 -34,133 -90,184 -51,38 -108,59 -170,63 z"
       class="fil1"
       id="path4677"
       inkscape:connector-curvature="0"
       style="fill:#ffffff" />
    <path
       d="m 77680,1008 c -18,-2 -34,-11 -47,-26 l -14,-27 V 621 l -500,-410 -3,-10 v -35 c 18,-46 51,-61 100,-44 l 474,379 475,-384 c 55,-8 86,15 92,70 -2,20 -11,37 -27,50 l -481,384 v 337 l -16,30 c -16,13 -34,20 -53,20 z"
       class="fil1"
       id="path4679"
       inkscape:connector-curvature="0"
       style="fill:#ffffff" />
  </g>
  <path
     style="clip-rule:evenodd;opacity:1;fill:#ffffff;fill-opacity:1;fill-rule:evenodd;stroke-width:0.0102146;image-rendering:optimizeQuality;shape-rendering:geometricPrecision"
     d="m 56.717098,251.82459 c -3.084811,0.2043 -6.118549,-0.4188 -9.060354,-1.46068 -4.024555,-1.43005 -7.497521,-3.73855 -10.429112,-6.854 -2.860089,-3.02353 -4.90301,-6.53735 -6.098119,-10.51083 -0.551589,-1.83863 -0.990817,-3.7079 -1.02146,-5.63846 -0.01022,-1.13383 -0.112361,-2.26765 -0.09193,-3.40146 0.06129,-2.17572 0.408584,-4.30036 1.011246,-6.39435 1.440259,-5.00516 4.136915,-9.20336 8.028679,-12.6559 2.206355,-1.95099 4.678289,-3.49339 7.395374,-4.617 1.859059,-0.77631 3.789618,-1.26661 5.771252,-1.64455 2.400432,-0.45966 4.821294,-0.35751 7.211511,-0.24515 2.298286,0.10215 4.5455,0.69459 6.721211,1.50155 2.267642,0.84781 4.402494,1.95099 6.353484,3.40146 1.695623,1.2564 3.381034,2.54344 4.535284,4.37185 1.184894,1.8897 1.511762,3.93262 1.246182,6.13898 -0.26558,2.24721 -1.368757,3.99391 -2.931591,5.55674 -4.065414,4.03478 -8.110397,8.08998 -12.155381,12.14517 -1.256396,1.25639 -2.737514,2.11442 -4.453567,2.43108 -4.453568,0.81717 -8.774346,-1.11339 -10.439326,-5.70997 -1.276827,-3.53426 -0.572019,-6.80293 2.042921,-9.54044 1.389186,-1.45048 3.125669,-2.29829 5.178804,-2.53322 2.267643,-0.26558 4.382066,0.0715 6.261553,1.37897 0.888671,0.6231 1.664981,1.41983 2.451505,2.18593 0.11236,0.10218 0.06129,0.53115 -0.06129,0.66394 -0.735451,0.79675 -1.521976,1.55262 -2.277857,2.32893 -0.275794,0.26559 -0.500515,0.21451 -0.776309,-0.0409 -0.653735,-0.59244 -1.276825,-1.24618 -2.012278,-1.71604 -2.196139,-1.40963 -4.811078,-0.52095 -6.179836,1.32789 -2.328929,3.14609 -0.06129,7.18087 3.350391,7.56902 1.521977,0.18386 2.798802,-0.33708 3.830477,-1.35854 4.239061,-4.18799 8.447478,-8.41683 12.655895,-12.64568 0.898886,-0.9091 1.419831,-2.04292 1.419831,-3.31975 0.01022,-1.52197 -0.704808,-2.75794 -1.797772,-3.76919 -1.450473,-1.33811 -3.023522,-2.523 -4.74979,-3.48318 -2.134852,-1.16446 -4.402496,-1.97142 -6.782498,-2.43107 -1.879488,-0.36773 -3.810047,-0.50052 -5.709964,-0.32687 -5.566959,0.53116 -10.408682,2.68644 -14.382164,6.68035 -2.298286,2.3085 -4.004124,4.99495 -5.148161,8.02868 -0.633305,1.68541 -1.103177,3.41167 -1.235967,5.20945 -0.09193,1.07253 -0.234936,2.15529 -0.194077,3.22781 0.0715,2.24721 0.480086,4.45357 1.205323,6.59864 0.888671,2.61494 2.185926,4.98472 3.932623,7.10936 2.523007,3.07459 5.638462,5.37289 9.366793,6.7825 1.256396,0.48008 2.553651,0.88868 3.881549,1.14404 2.042921,0.37794 4.116486,0.51073 6.220695,0.28601 1.767126,-0.18387 3.50361,-0.52095 5.18902,-1.09296 2.584294,-0.87846 4.954083,-2.1655 7.048077,-3.92241 0.735451,-0.61288 1.440259,-1.26662 2.073564,-1.98164 0.704808,-0.79674 1.082749,-1.79777 1.082749,-2.86009 0.01022,-1.38919 -0.582233,-2.56386 -1.552621,-3.54447 -1.17468,-1.1951 -2.359573,-2.36978 -3.544467,-3.55468 -0.459658,-0.44944 -0.449443,-0.58223 0.01022,-1.03167 0.684378,-0.67417 1.358542,-1.35855 2.032706,-2.04293 0.377941,-0.38815 0.582232,-0.37794 0.960173,0 1.215538,1.22575 2.441291,2.4413 3.656828,3.66704 1.378972,1.41984 2.257428,3.07461 2.533222,5.07667 0.469872,3.51382 -0.755881,6.33306 -3.360605,8.64155 -1.991848,1.75691 -4.147129,3.26867 -6.557777,4.4025 -2.073564,0.96017 -4.218631,1.65477 -6.476058,2.08377 -1.695625,0.32687 -3.391249,0.45966 -5.178806,0.38816 z"
     class="fil2"
     id="path4683"
     inkscape:connector-curvature="0" />
</g>
<g
   id="g123"
   inkscape:export-filename="/tmp/g123.png"
   inkscape:export-xdpi="23.713409"
   inkscape:export-ydpi="23.713409">
  <g
     style="clip-rule:evenodd;fill:#ffffff;image-rendering:optimizeQuality;shape-rendering:geometricPrecision"
     transform="matrix(0.01167362,0,0,0.01676702,-693.50186,547.04533)"
     id="g4714">
    <path
       d="m 64004,1008 c -34,-4 -66,-12 -97,-23 -31,-12 -59,-29 -83,-54 -18,-20 -32,-42 -42,-65 -10,-23 -17,-47 -21,-71 V 367 c 5,-35 15,-68 29,-100 13,-31 33,-60 60,-87 22,-20 46,-35 71,-45 26,-10 54,-16 83,-18 h 700 c 32,4 61,12 89,23 28,11 53,30 76,57 17,22 29,47 36,74 7,26 9,54 6,82 -4,10 -9,18 -16,26 -7,8 -15,14 -24,18 l -39,4 -34,-20 c -14,-16 -20,-35 -18,-57 1,-23 -7,-41 -25,-54 l -44,-20 h -707 c -13,2 -26,6 -38,12 -13,5 -25,14 -36,26 -11,15 -20,31 -27,48 -7,16 -11,34 -12,51 v 378 c 1,13 4,26 9,39 5,13 11,26 20,38 11,8 23,15 36,21 12,6 25,10 38,11 h 717 l 44,-26 c 8,-16 13,-34 13,-54 0,-19 6,-37 20,-53 9,-7 19,-12 29,-15 10,-4 22,-4 35,-2 9,4 17,9 25,15 8,6 14,13 18,22 l 6,50 c -1,29 -8,57 -20,84 -13,27 -31,50 -57,70 -17,13 -36,23 -56,29 -20,7 -41,12 -64,14 z"
       class="fil1"
       id="path4696"
       inkscape:connector-curvature="0"
       style="fill:#ffffff" />
    <path
       d="m 65687,1008 c -67,-4 -127,-32 -178,-83 -35,-45 -57,-97 -66,-157 V 353 c 9,-64 37,-121 86,-173 47,-38 100,-59 158,-63 h 641 c 76,7 140,38 193,94 38,48 59,104 63,166 v 371 c -4,78 -35,144 -93,200 -45,36 -96,56 -154,60 z m 714,-156 c 27,-27 43,-58 49,-94 V 371 c -1,-34 -16,-63 -43,-87 -21,-18 -46,-29 -73,-34 h -651 c -27,2 -50,14 -71,34 -22,27 -35,58 -39,93 v 371 c 4,38 20,71 47,100 20,16 42,25 67,26 h 654 z"
       class="fil1"
       id="path4698"
       inkscape:connector-curvature="0"
       style="fill:#ffffff" />
    <path
       d="m 67184,1008 c -18,-2 -33,-11 -47,-26 l -12,-24 V 166 c 6,-44 29,-61 69,-49 l 938,688 V 174 l 24,-40 c 15,-11 32,-17 50,-17 34,9 54,30 60,63 v 765 c -9,53 -38,70 -86,51 l -925,-682 v 644 c -7,17 -19,32 -37,44 z"
       class="fil1"
       id="path4700"
       inkscape:connector-curvature="0"
       style="fill:#ffffff" />
    <path
       d="m 69050,1008 c -34,-4 -66,-12 -98,-23 -31,-12 -58,-29 -83,-54 -17,-20 -31,-42 -41,-65 -11,-23 -18,-47 -22,-71 V 367 c 6,-35 16,-68 29,-100 14,-31 34,-60 61,-87 22,-20 45,-35 71,-45 26,-10 53,-16 83,-18 h 700 c 31,4 61,12 88,23 28,11 53,30 76,57 18,22 30,47 37,74 6,26 8,54 6,82 -4,10 -10,18 -16,26 -7,8 -15,14 -24,18 l -40,4 -34,-20 c -13,-16 -19,-35 -18,-57 1,-23 -7,-41 -25,-54 l -44,-20 h -706 c -14,2 -27,6 -39,12 -12,5 -24,14 -36,26 -11,15 -20,31 -26,48 -7,16 -11,34 -13,51 v 378 c 2,13 5,26 10,39 4,13 11,26 19,38 12,8 24,15 36,21 12,6 25,10 39,11 h 716 c 35,-9 54,-32 58,-69 l -1,-150 h -597 c -24,-6 -39,-13 -43,-22 -5,-8 -9,-17 -12,-27 -4,-10 -4,-22 -2,-36 9,-33 28,-50 57,-49 h 672 c 36,4 56,25 59,63 v 227 c -2,29 -9,57 -21,84 -12,27 -31,50 -56,70 -18,13 -36,23 -56,29 -20,7 -41,12 -64,14 z"
       class="fil1"
       id="path4702"
       inkscape:connector-curvature="0"
       style="fill:#ffffff" />
    <path
       d="m 70561,1008 c -18,-2 -34,-11 -47,-26 l -13,-24 V 570 c 13,-31 32,-47 56,-49 h 789 c 35,-5 65,-22 89,-50 14,-21 22,-42 24,-64 v -44 c -2,-31 -16,-57 -40,-79 -22,-18 -48,-29 -77,-34 h -785 c -28,-8 -46,-24 -56,-49 v -35 c 15,-31 35,-47 60,-49 h 771 c 78,4 145,36 200,94 29,38 48,80 57,126 v 34 l 4,30 c -3,60 -23,114 -61,163 41,27 70,61 88,103 13,32 20,65 22,101 v 177 c -5,41 -29,62 -73,63 -18,-2 -33,-11 -47,-26 l -14,-31 V 758 c -4,-29 -17,-55 -39,-77 -20,-16 -42,-24 -67,-26 h -771 v 303 c -6,17 -19,32 -36,44 z"
       class="fil1"
       id="path4704"
       inkscape:connector-curvature="0"
       style="fill:#ffffff" />
    <path
       d="m 72241,250 -39,-19 c -7,-9 -12,-19 -15,-29 -3,-10 -3,-22 -2,-36 14,-28 34,-45 60,-49 h 1022 c 38,6 57,29 59,70 -2,9 -4,17 -7,25 -4,7 -9,15 -16,21 l -34,17 z m 4,758 c -9,-2 -17,-5 -25,-9 -8,-3 -15,-9 -22,-17 l -13,-24 V 521 c 9,-28 27,-45 56,-50 h 929 l 36,20 c 7,9 12,19 15,28 4,10 4,21 2,35 l -17,30 c -7,4 -13,8 -20,12 -7,3 -14,6 -23,8 h -848 v 270 h 954 c 36,6 55,30 57,71 -7,36 -28,57 -63,63 z"
       class="fil1"
       id="path4706"
       inkscape:connector-curvature="0"
       style="fill:#ffffff" />
    <path
       d="m 74013,1008 c -60,-4 -110,-30 -150,-77 -25,-33 -41,-71 -47,-113 v -43 c 10,-23 21,-38 31,-44 11,-7 27,-9 49,-7 33,9 49,26 49,51 0,24 6,45 17,63 11,18 28,30 51,36 h 694 c 36,-6 67,-23 94,-50 11,-18 18,-37 22,-59 v -51 c -1,-31 -16,-57 -43,-79 -20,-16 -43,-26 -70,-31 h -640 c -78,-4 -146,-35 -205,-93 -26,-34 -43,-70 -49,-110 v -81 c 9,-53 35,-99 80,-140 53,-38 111,-59 174,-63 h 678 c 59,4 110,27 152,67 38,44 57,96 57,157 -2,17 -10,33 -26,46 -16,11 -35,16 -57,14 -22,-10 -36,-22 -42,-35 -6,-14 -10,-33 -12,-59 -2,-25 -24,-45 -66,-57 h -692 c -38,5 -70,21 -96,48 -13,22 -20,46 -20,73 0,26 11,48 33,67 24,17 52,28 83,33 h 645 c 73,6 138,39 193,97 34,44 53,94 57,150 v 43 c -4,71 -34,133 -89,184 -52,38 -109,59 -171,63 z"
       class="fil1"
       id="path4708"
       inkscape:connector-curvature="0"
       style="fill:#ffffff" />
    <path
       d="m 75682,1008 c -61,-4 -111,-30 -150,-77 -25,-33 -41,-71 -47,-113 v -43 c 10,-23 20,-38 31,-44 10,-7 27,-9 49,-7 32,9 49,26 49,51 0,24 5,45 17,63 11,18 28,30 51,36 h 694 c 35,-6 66,-23 93,-50 11,-18 19,-37 23,-59 v -51 c -2,-31 -16,-57 -43,-79 -20,-16 -44,-26 -70,-31 h -640 c -79,-4 -147,-35 -205,-93 -27,-34 -43,-70 -49,-110 v -81 c 8,-53 35,-99 80,-140 53,-38 111,-59 174,-63 h 677 c 60,4 111,27 153,67 38,44 57,96 57,157 -2,17 -11,33 -27,46 -15,11 -34,16 -56,14 -22,-10 -36,-22 -42,-35 -6,-14 -10,-33 -12,-59 -2,-25 -24,-45 -66,-57 h -692 c -38,5 -70,21 -96,48 -13,22 -20,46 -20,73 0,26 11,48 33,67 24,17 52,28 83,33 h 645 c 73,6 138,39 193,97 34,44 53,94 57,150 v 43 c -4,71 -34,133 -90,184 -51,38 -108,59 -170,63 z"
       class="fil1"
       id="path4710"
       inkscape:connector-curvature="0"
       style="fill:#ffffff" />
    <path
       d="m 77680,1008 c -18,-2 -34,-11 -47,-26 l -14,-27 V 621 l -500,-410 -3,-10 v -35 c 18,-46 51,-61 100,-44 l 474,379 475,-384 c 55,-8 86,15 92,70 -2,20 -11,37 -27,50 l -481,384 v 337 l -16,30 c -16,13 -34,20 -53,20 z"
       class="fil1"
       id="path4712"
       inkscape:connector-curvature="0"
       style="fill:#ffffff" />
  </g>
  <path
     style="clip-rule:evenodd;opacity:1;fill:#5b8790;fill-opacity:1;fill-rule:evenodd;stroke-width:0.0102146;image-rendering:optimizeQuality;shape-rendering:geometricPrecision"
     d="m 17.322472,583.24633 c -3.084811,0.2043 -6.118549,-0.4188 -9.060354,-1.46068 -4.024555,-1.43005 -7.497521,-3.73855 -10.429112,-6.854 -2.860089,-3.02353 -4.90301,-6.53735 -6.098119,-10.51083 -0.551589,-1.83863 -0.990817,-3.7079 -1.02146,-5.63846 -0.01022,-1.13383 -0.112361,-2.26765 -0.09193,-3.40146 0.06129,-2.17572 0.408584,-4.30036 1.011246,-6.39435 1.440259,-5.00516 4.136915,-9.20336 8.028679,-12.6559 2.206355,-1.95099 4.678289,-3.49339 7.395374,-4.617 1.859059,-0.77631 3.789618,-1.26661 5.771252,-1.64455 2.400432,-0.45966 4.821294,-0.35751 7.211511,-0.24515 2.298286,0.10215 4.5455,0.69459 6.721211,1.50155 2.267642,0.84781 4.402494,1.95099 6.353484,3.40146 1.695623,1.2564 3.381034,2.54344 4.535284,4.37185 1.184894,1.8897 1.511762,3.93262 1.246182,6.13898 -0.26558,2.24721 -1.368757,3.99391 -2.931591,5.55674 -4.065414,4.03478 -8.110397,8.08998 -12.155381,12.14517 -1.256396,1.25639 -2.737514,2.11442 -4.453567,2.43108 -4.453568,0.81717 -8.774346,-1.11339 -10.439326,-5.70997 -1.276827,-3.53426 -0.572019,-6.80293 2.042921,-9.54044 1.389186,-1.45048 3.125669,-2.29829 5.178804,-2.53322 2.267643,-0.26558 4.382066,0.0715 6.261553,1.37897 0.888671,0.6231 1.664981,1.41983 2.451505,2.18593 0.11236,0.10218 0.06129,0.53115 -0.06129,0.66394 -0.735451,0.79675 -1.521976,1.55262 -2.277857,2.32893 -0.275794,0.26559 -0.500515,0.21451 -0.776309,-0.0409 -0.653735,-0.59244 -1.276825,-1.24618 -2.012278,-1.71604 -2.196139,-1.40963 -4.811078,-0.52095 -6.179836,1.32789 -2.328929,3.14609 -0.06129,7.18087 3.350391,7.56902 1.521977,0.18386 2.798802,-0.33708 3.830477,-1.35854 4.239061,-4.18799 8.447478,-8.41683 12.655895,-12.64568 0.898886,-0.9091 1.419831,-2.04292 1.419831,-3.31975 0.01022,-1.52197 -0.704808,-2.75794 -1.797772,-3.76919 -1.450473,-1.33811 -3.023522,-2.523 -4.74979,-3.48318 -2.134852,-1.16446 -4.402496,-1.97142 -6.782498,-2.43107 -1.879488,-0.36773 -3.810047,-0.50052 -5.709964,-0.32687 -5.566959,0.53116 -10.408682,2.68644 -14.382164,6.68035 -2.298286,2.3085 -4.004124,4.99495 -5.148161,8.02868 -0.633305,1.68541 -1.103177,3.41167 -1.235967,5.20945 -0.09193,1.07253 -0.234936,2.15529 -0.194077,3.22781 0.0715,2.24721 0.480086,4.45357 1.205323,6.59864 0.888671,2.61494 2.185926,4.98472 3.932623,7.10936 2.523007,3.07459 5.638462,5.37289 9.366793,6.7825 1.256396,0.48008 2.553651,0.88868 3.881549,1.14404 2.042921,0.37794 4.116486,0.51073 6.220695,0.28601 1.767126,-0.18387 3.50361,-0.52095 5.18902,-1.09296 2.584294,-0.87846 4.954083,-2.1655 7.048077,-3.92241 0.735451,-0.61288 1.440259,-1.26662 2.073564,-1.98164 0.704808,-0.79674 1.082749,-1.79777 1.082749,-2.86009 0.01022,-1.38919 -0.582233,-2.56386 -1.552621,-3.54447 -1.17468,-1.1951 -2.359573,-2.36978 -3.544467,-3.55468 -0.459658,-0.44944 -0.449443,-0.58223 0.01022,-1.03167 0.684378,-0.67417 1.358542,-1.35855 2.032706,-2.04293 0.377941,-0.38815 0.582232,-0.37794 0.960173,0 1.215538,1.22575 2.441291,2.4413 3.656828,3.66704 1.378972,1.41984 2.257428,3.07461 2.533222,5.07667 0.469872,3.51382 -0.755881,6.33306 -3.360605,8.64155 -1.991848,1.75691 -4.147129,3.26867 -6.557777,4.4025 -2.073564,0.96017 -4.218631,1.65477 -6.476058,2.08377 -1.695625,0.32687 -3.391249,0.45966 -5.178806,0.38816 z"
     class="fil2"
     id="path4716"
     inkscape:connector-curvature="0" />
</g>
</svg>
