<?xml version="1.0" encoding="UTF-8" standalone="no"?>
<!-- Created with Inkscape (http://www.inkscape.org/) -->

<svg
   xmlns:dc="http://purl.org/dc/elements/1.1/"
   xmlns:cc="http://creativecommons.org/ns#"
   xmlns:rdf="http://www.w3.org/1999/02/22-rdf-syntax-ns#"
   xmlns:svg="http://www.w3.org/2000/svg"
   xmlns="http://www.w3.org/2000/svg"
   xmlns:sodipodi="http://sodipodi.sourceforge.net/DTD/sodipodi-0.dtd"
   xmlns:inkscape="http://www.inkscape.org/namespaces/inkscape"
   height="52.430946mm"
   width="196.94218mm"
   version="1.1"
   viewBox="0 0 196.94219 52.431255"
   id="svg91"
   sodipodi:docname="logo_v2.svg"
   inkscape:version="0.48.5 r10040"><defs
   id="defs95">
  <style
     id="style3007"
     type="text/css">
    .fil2 {fill:#FEFEFE}
    .fil9 {fill:#201E1E}
    .fil6 {fill:#0A012A}
    .fil12 {fill:#0A012A}
    .fil4 {fill:#5DAAB8}
    .fil10 {fill:#5DAAB8}
    .fil13 {fill:#FEFEFE;fill-rule:nonzero}
    .fil3 {fill:#201E1E;fill-rule:nonzero}
    .fil0 {fill:#201E1E;fill-rule:nonzero}
    .fil8 {fill:#0A012A;fill-rule:nonzero}
    .fil7 {fill:#0A012A;fill-rule:nonzero}
    .fil5 {fill:#5DAAB8;fill-rule:nonzero}
    .fil11 {fill:#5DAAB8;fill-rule:nonzero}
    .fil1 {fill:white;fill-rule:nonzero}
   </style>
  <style
     id="style3454"
     type="text/css">
    .fil2 {fill:#FEFEFE}
    .fil9 {fill:#201E1E}
    .fil6 {fill:#0A012A}
    .fil12 {fill:#0A012A}
    .fil4 {fill:#5DAAB8}
    .fil10 {fill:#5DAAB8}
    .fil13 {fill:#FEFEFE;fill-rule:nonzero}
    .fil3 {fill:#201E1E;fill-rule:nonzero}
    .fil0 {fill:#201E1E;fill-rule:nonzero}
    .fil8 {fill:#0A012A;fill-rule:nonzero}
    .fil7 {fill:#0A012A;fill-rule:nonzero}
    .fil5 {fill:#5DAAB8;fill-rule:nonzero}
    .fil11 {fill:#5DAAB8;fill-rule:nonzero}
    .fil1 {fill:white;fill-rule:nonzero}
   </style>
</defs>
<sodipodi:namedview
   pagecolor="#ffffff"
   bordercolor="#666666"
   borderopacity="1"
   objecttolerance="10"
   gridtolerance="10"
   guidetolerance="10"
   inkscape:pageopacity="0"
   inkscape:pageshadow="2"
   inkscape:window-width="1920"
   inkscape:window-height="1014"
   id="namedview93"
   showgrid="false"
   fit-margin-top="0"
   fit-margin-left="0"
   fit-margin-right="0"
   fit-margin-bottom="0"
   inkscape:zoom="1.2493604"
   inkscape:cx="203.67654"
   inkscape:cy="-256.96855"
   inkscape:window-x="0"
   inkscape:window-y="27"
   inkscape:window-maximized="1"
   inkscape:current-layer="svg91" />
<metadata
   id="metadata63">
  <rdf:RDF>
    <cc:Work
       rdf:about="">
      <dc:format>image/svg+xml</dc:format>
      <dc:type
         rdf:resource="http://purl.org/dc/dcmitype/StillImage" />
      <dc:title></dc:title>
    </cc:Work>
  </rdf:RDF>
</metadata>
<g
   id="g83"
   style="clip-rule:evenodd;fill:#000000;fill-rule:nonzero;image-rendering:optimizeQuality;shape-rendering:geometricPrecision"
   transform="matrix(0.01163557,0,0,0.01671265,-679.56869,13.992683)">
  <path
     d="m 64004,1008 c -34,-4 -66,-12 -97,-23 -31,-12 -59,-29 -83,-54 -18,-20 -32,-42 -42,-65 -10,-23 -17,-47 -21,-71 V 367 c 5,-35 15,-68 29,-100 13,-31 33,-60 60,-87 22,-20 46,-35 71,-45 26,-10 54,-16 83,-18 h 700 c 32,4 61,12 89,23 28,11 53,30 76,57 17,22 29,47 36,74 7,26 9,54 6,82 -4,10 -9,18 -16,26 -7,8 -15,14 -24,18 l -39,4 -34,-20 c -14,-16 -20,-35 -18,-57 1,-23 -7,-41 -25,-54 l -44,-20 h -707 c -13,2 -26,6 -38,12 -13,5 -25,14 -36,26 -11,15 -20,31 -27,48 -7,16 -11,34 -12,51 v 378 c 1,13 4,26 9,39 5,13 11,26 20,38 11,8 23,15 36,21 12,6 25,10 38,11 h 717 l 44,-26 c 8,-16 13,-34 13,-54 0,-19 6,-37 20,-53 9,-7 19,-12 29,-15 10,-4 22,-4 35,-2 9,4 17,9 25,15 8,6 14,13 18,22 l 6,50 c -1,29 -8,57 -20,84 -13,27 -31,50 -57,70 -17,13 -36,23 -56,29 -20,7 -41,12 -64,14 z"
     class="fil1"
     id="path65"
     style="fill:#000000"
     inkscape:connector-curvature="0" />
  <path
     d="m 65687,1008 c -67,-4 -127,-32 -178,-83 -35,-45 -57,-97 -66,-157 V 353 c 9,-64 37,-121 86,-173 47,-38 100,-59 158,-63 h 641 c 76,7 140,38 193,94 38,48 59,104 63,166 v 371 c -4,78 -35,144 -93,200 -45,36 -96,56 -154,60 z m 714,-156 c 27,-27 43,-58 49,-94 V 371 c -1,-34 -16,-63 -43,-87 -21,-18 -46,-29 -73,-34 h -651 c -27,2 -50,14 -71,34 -22,27 -35,58 -39,93 v 371 c 4,38 20,71 47,100 20,16 42,25 67,26 h 654 z"
     class="fil1"
     id="path67"
     style="fill:#000000"
     inkscape:connector-curvature="0" />
  <path
     d="m 67184,1008 c -18,-2 -33,-11 -47,-26 l -12,-24 V 166 c 6,-44 29,-61 69,-49 l 938,688 V 174 l 24,-40 c 15,-11 32,-17 50,-17 34,9 54,30 60,63 v 765 c -9,53 -38,70 -86,51 l -925,-682 v 644 c -7,17 -19,32 -37,44 z"
     class="fil1"
     id="path69"
     style="fill:#000000"
     inkscape:connector-curvature="0" />
  <path
     d="m 69050,1008 c -34,-4 -66,-12 -98,-23 -31,-12 -58,-29 -83,-54 -17,-20 -31,-42 -41,-65 -11,-23 -18,-47 -22,-71 V 367 c 6,-35 16,-68 29,-100 14,-31 34,-60 61,-87 22,-20 45,-35 71,-45 26,-10 53,-16 83,-18 h 700 c 31,4 61,12 88,23 28,11 53,30 76,57 18,22 30,47 37,74 6,26 8,54 6,82 -4,10 -10,18 -16,26 -7,8 -15,14 -24,18 l -40,4 -34,-20 c -13,-16 -19,-35 -18,-57 1,-23 -7,-41 -25,-54 l -44,-20 h -706 c -14,2 -27,6 -39,12 -12,5 -24,14 -36,26 -11,15 -20,31 -26,48 -7,16 -11,34 -13,51 v 378 c 2,13 5,26 10,39 4,13 11,26 19,38 12,8 24,15 36,21 12,6 25,10 39,11 h 716 c 35,-9 54,-32 58,-69 l -1,-150 h -597 c -24,-6 -39,-13 -43,-22 -5,-8 -9,-17 -12,-27 -4,-10 -4,-22 -2,-36 9,-33 28,-50 57,-49 h 672 c 36,4 56,25 59,63 v 227 c -2,29 -9,57 -21,84 -12,27 -31,50 -56,70 -18,13 -36,23 -56,29 -20,7 -41,12 -64,14 z"
     class="fil1"
     id="path71"
     style="fill:#000000"
     inkscape:connector-curvature="0" />
  <path
     d="m 70561,1008 c -18,-2 -34,-11 -47,-26 l -13,-24 V 570 c 13,-31 32,-47 56,-49 h 789 c 35,-5 65,-22 89,-50 14,-21 22,-42 24,-64 v -44 c -2,-31 -16,-57 -40,-79 -22,-18 -48,-29 -77,-34 h -785 c -28,-8 -46,-24 -56,-49 v -35 c 15,-31 35,-47 60,-49 h 771 c 78,4 145,36 200,94 29,38 48,80 57,126 v 34 l 4,30 c -3,60 -23,114 -61,163 41,27 70,61 88,103 13,32 20,65 22,101 v 177 c -5,41 -29,62 -73,63 -18,-2 -33,-11 -47,-26 l -14,-31 V 758 c -4,-29 -17,-55 -39,-77 -20,-16 -42,-24 -67,-26 h -771 v 303 c -6,17 -19,32 -36,44 z"
     class="fil1"
     id="path73"
     style="fill:#000000"
     inkscape:connector-curvature="0" />
  <path
     d="m 72241,250 -39,-19 c -7,-9 -12,-19 -15,-29 -3,-10 -3,-22 -2,-36 14,-28 34,-45 60,-49 h 1022 c 38,6 57,29 59,70 -2,9 -4,17 -7,25 -4,7 -9,15 -16,21 l -34,17 z m 4,758 c -9,-2 -17,-5 -25,-9 -8,-3 -15,-9 -22,-17 l -13,-24 V 521 c 9,-28 27,-45 56,-50 h 929 l 36,20 c 7,9 12,19 15,28 4,10 4,21 2,35 l -17,30 c -7,4 -13,8 -20,12 -7,3 -14,6 -23,8 h -848 v 270 h 954 c 36,6 55,30 57,71 -7,36 -28,57 -63,63 z"
     class="fil1"
     id="path75"
     style="fill:#000000"
     inkscape:connector-curvature="0" />
  <path
     d="m 74013,1008 c -60,-4 -110,-30 -150,-77 -25,-33 -41,-71 -47,-113 v -43 c 10,-23 21,-38 31,-44 11,-7 27,-9 49,-7 33,9 49,26 49,51 0,24 6,45 17,63 11,18 28,30 51,36 h 694 c 36,-6 67,-23 94,-50 11,-18 18,-37 22,-59 v -51 c -1,-31 -16,-57 -43,-79 -20,-16 -43,-26 -70,-31 h -640 c -78,-4 -146,-35 -205,-93 -26,-34 -43,-70 -49,-110 v -81 c 9,-53 35,-99 80,-140 53,-38 111,-59 174,-63 h 678 c 59,4 110,27 152,67 38,44 57,96 57,157 -2,17 -10,33 -26,46 -16,11 -35,16 -57,14 -22,-10 -36,-22 -42,-35 -6,-14 -10,-33 -12,-59 -2,-25 -24,-45 -66,-57 h -692 c -38,5 -70,21 -96,48 -13,22 -20,46 -20,73 0,26 11,48 33,67 24,17 52,28 83,33 h 645 c 73,6 138,39 193,97 34,44 53,94 57,150 v 43 c -4,71 -34,133 -89,184 -52,38 -109,59 -171,63 z"
     class="fil1"
     id="path77"
     style="fill:#000000"
     inkscape:connector-curvature="0" />
  <path
     d="m 75682,1008 c -61,-4 -111,-30 -150,-77 -25,-33 -41,-71 -47,-113 v -43 c 10,-23 20,-38 31,-44 10,-7 27,-9 49,-7 32,9 49,26 49,51 0,24 5,45 17,63 11,18 28,30 51,36 h 694 c 35,-6 66,-23 93,-50 11,-18 19,-37 23,-59 v -51 c -2,-31 -16,-57 -43,-79 -20,-16 -44,-26 -70,-31 h -640 c -79,-4 -147,-35 -205,-93 -27,-34 -43,-70 -49,-110 v -81 c 8,-53 35,-99 80,-140 53,-38 111,-59 174,-63 h 677 c 60,4 111,27 153,67 38,44 57,96 57,157 -2,17 -11,33 -27,46 -15,11 -34,16 -56,14 -22,-10 -36,-22 -42,-35 -6,-14 -10,-33 -12,-59 -2,-25 -24,-45 -66,-57 h -692 c -38,5 -70,21 -96,48 -13,22 -20,46 -20,73 0,26 11,48 33,67 24,17 52,28 83,33 h 645 c 73,6 138,39 193,97 34,44 53,94 57,150 v 43 c -4,71 -34,133 -90,184 -51,38 -108,59 -170,63 z"
     class="fil1"
     id="path79"
     style="fill:#000000"
     inkscape:connector-curvature="0" />
  <path
     d="m 77680,1008 c -18,-2 -34,-11 -47,-26 l -14,-27 V 621 l -500,-410 -3,-10 v -35 c 18,-46 51,-61 100,-44 l 474,379 475,-384 c 55,-8 86,15 92,70 -2,20 -11,37 -27,50 l -481,384 v 337 l -16,30 c -16,13 -34,20 -53,20 z"
     class="fil1"
     id="path81"
     style="fill:#000000"
     inkscape:connector-curvature="0" />
</g>
<path
   d="m 26.142217,52.393427 c -3.02,0.2 -5.99,-0.41 -8.87,-1.43 -3.94,-1.4 -7.34,-3.66 -10.21,-6.71 -2.8,-2.96 -4.8,-6.4 -5.97,-10.29 -0.54,-1.8 -0.97,-3.63 -1,-5.52 -0.01,-1.11 -0.11,-2.22 -0.09,-3.33 0.06,-2.13 0.4,-4.21 0.99,-6.26 1.41,-4.9 4.05,-9.0100003 7.86,-12.3900003 2.16,-1.91 4.58,-3.42 7.24,-4.52 1.82,-0.76 3.71,-1.24000002 5.65,-1.61000002 2.35,-0.45 4.72,-0.35 7.06,-0.24 2.25,0.1 4.45,0.68 6.58,1.47000002 2.22,0.83 4.31,1.91 6.22,3.33 1.66,1.23 3.31,2.49 4.44,4.28 1.16,1.8500003 1.48,3.8500003 1.22,6.0100003 -0.26,2.2 -1.34,3.91 -2.87,5.44 -3.98,3.95 -7.94,7.92 -11.9,11.89 -1.23,1.23 -2.68,2.07 -4.36,2.38 -4.36,0.8 -8.59,-1.09 -10.22,-5.59 -1.25,-3.46 -0.56,-6.66 2,-9.34 1.36,-1.42 3.06,-2.25 5.07,-2.48 2.22,-0.26 4.29,0.07 6.13,1.35 0.87,0.61 1.63,1.39 2.4,2.14 0.11,0.1 0.06,0.52 -0.06,0.65 -0.72,0.78 -1.49,1.52 -2.23,2.28 -0.27,0.26 -0.49,0.21 -0.76,-0.04 -0.64,-0.58 -1.25,-1.22 -1.97,-1.68 -2.15,-1.38 -4.71,-0.51 -6.05,1.3 -2.28,3.08 -0.06,7.03 3.28,7.41 1.49,0.18 2.74,-0.33 3.75,-1.33 4.15,-4.1 8.27,-8.24 12.39,-12.38 0.88,-0.89 1.39,-2 1.39,-3.25 0.01,-1.49 -0.69,-2.7 -1.76,-3.69 -1.42,-1.3100003 -2.96,-2.4700003 -4.65,-3.4100003 -2.09,-1.14 -4.31,-1.93 -6.64,-2.38 -1.84,-0.36 -3.73,-0.49 -5.59,-0.32 -5.45,0.52 -10.19,2.63 -14.08,6.5400003 -2.25,2.26 -3.92,4.89 -5.04,7.86 -0.62,1.65 -1.08,3.34 -1.21,5.1 -0.09,1.05 -0.23,2.11 -0.19,3.16 0.07,2.2 0.47,4.36 1.18,6.46 0.87,2.56 2.14,4.88 3.85,6.96 2.47,3.01 5.52,5.26 9.17,6.64 1.23,0.47 2.5,0.87 3.8,1.12 2,0.37 4.03,0.5 6.09,0.28 1.73,-0.18 3.43,-0.51 5.08,-1.07 2.53,-0.86 4.85,-2.12 6.9,-3.84 0.72,-0.6 1.41,-1.24 2.03,-1.94 0.69,-0.78 1.06,-1.76 1.06,-2.8 0.01,-1.36 -0.57,-2.51 -1.52,-3.47 -1.15,-1.17 -2.31,-2.32 -3.47,-3.48 -0.45,-0.44 -0.44,-0.57 0.01,-1.01 0.67,-0.66 1.33,-1.33 1.99,-2 0.37,-0.38 0.57,-0.37 0.94,0 1.19,1.2 2.39,2.39 3.58,3.59 1.35,1.39 2.21,3.01 2.48,4.97 0.46,3.44 -0.74,6.2 -3.29,8.46 -1.95,1.72 -4.06,3.2 -6.42,4.31 -2.03,0.94 -4.13,1.62 -6.34,2.04 -1.66,0.32 -3.32,0.45 -5.07,0.38 z"
   class="fil2"
   id="path85"
   style="clip-rule:evenodd;fill:#000000;fill-rule:evenodd;stroke-width:0.01;image-rendering:optimizeQuality;shape-rendering:geometricPrecision"
   inkscape:connector-curvature="0" />


   /&gt;
<g
   id="g4214"
   inkscape:export-xdpi="31.75"
   inkscape:export-ydpi="31.75">
  <g
     transform="translate(0,1.1677609)"
     id="g4203">
    <path
       style="fill:#201e1e;fill-rule:nonzero"
       inkscape:connector-curvature="0"
       class="fil3"
       d="m 52.760034,138.01417 c -0.416395,-0.0631 -0.832791,-0.15142 -1.22395,-0.30283 -0.39116,-0.13881 -0.744464,-0.36593 -1.047298,-0.66877 -0.227125,-0.26497 -0.403778,-0.52995 -0.529957,-0.82016 -0.126181,-0.29022 -0.214507,-0.59305 -0.264979,-0.90851 l 0,-5.3879 c 0.07571,-0.45425 0.18927,-0.87065 0.365922,-1.26181 0.164035,-0.39116 0.429014,-0.75708 0.757084,-1.09776 0.277596,-0.25236 0.58043,-0.45426 0.908498,-0.58044 0.315452,-0.12618 0.668757,-0.20189 1.03468,-0.21451 l 8.845249,0 c 0.39116,0.0505 0.757084,0.15142 1.110388,0.2776 0.353306,0.13881 0.668757,0.37855 0.958972,0.71924 0.227125,0.29021 0.378542,0.60566 0.454249,0.93373 0.08833,0.34068 0.113562,0.68138 0.08833,1.0473 -0.05047,0.11356 -0.126181,0.22712 -0.214507,0.32807 -0.07571,0.10094 -0.176652,0.17665 -0.302833,0.22712 l -0.492104,0.0505 -0.429013,-0.26498 c -0.164035,-0.20188 -0.239743,-0.44162 -0.227125,-0.71922 0.01262,-0.27761 -0.08833,-0.50473 -0.315452,-0.68138 l -0.555193,-0.25236 -8.920958,0 c -0.164035,0.0378 -0.328069,0.0883 -0.479485,0.15141 -0.151417,0.0757 -0.302834,0.17666 -0.45425,0.32807 -0.138799,0.18927 -0.252362,0.39117 -0.340688,0.60568 -0.07571,0.2145 -0.138798,0.42901 -0.151416,0.65613 l 0,4.757 c 0.01262,0.17665 0.06309,0.34069 0.113561,0.50472 0.06309,0.16405 0.138799,0.31546 0.252361,0.46688 0.151417,0.10094 0.302834,0.20188 0.454249,0.27759 0.151417,0.0631 0.315452,0.11356 0.479487,0.1388 l 9.047138,0 0.555193,-0.34069 c 0.113562,-0.20188 0.164035,-0.42902 0.164035,-0.66876 0,-0.25236 0.08833,-0.47948 0.252361,-0.68137 0.113561,-0.0883 0.239742,-0.15142 0.365923,-0.18927 0.126181,-0.0379 0.277597,-0.0505 0.441632,-0.0126 0.113561,0.0505 0.214506,0.11356 0.31545,0.18927 0.100944,0.0757 0.176653,0.16403 0.227126,0.26498 l 0.08833,0.64351 c -0.02524,0.35332 -0.113562,0.70662 -0.264979,1.04731 -0.151417,0.34068 -0.391159,0.64352 -0.706611,0.89587 -0.227125,0.15142 -0.466867,0.27761 -0.70661,0.36594 -0.252361,0.0883 -0.529957,0.1388 -0.807555,0.17665 l -8.845249,0 z"
       id="path3481" />
    <path
       style="fill:#201e1e;fill-rule:nonzero"
       inkscape:connector-curvature="0"
       class="fil3"
       d="m 73.996204,138.01417 c -0.845409,-0.0631 -1.602493,-0.40379 -2.246013,-1.05992 -0.441631,-0.55519 -0.719228,-1.21133 -0.820172,-1.96842 l 0,-5.23648 c 0.100944,-0.80756 0.466868,-1.53941 1.072534,-2.18292 0.593047,-0.4795 1.261805,-0.74447 1.993651,-0.79495 l 8.088167,0 c 0.958971,0.0757 1.766526,0.4795 2.435282,1.17349 0.479485,0.61828 0.744465,1.31227 0.794937,2.10721 l 0,4.68129 c -0.05047,0.9716 -0.441631,1.80438 -1.173479,2.51099 -0.567811,0.45425 -1.211331,0.70662 -1.943178,0.76971 l -8.201729,0 z m 9.009284,-1.98103 0,0 c 0.340687,-0.34069 0.555194,-0.73186 0.630902,-1.17349 l 0,-4.89579 c -0.02524,-0.4164 -0.201889,-0.78233 -0.542576,-1.09778 -0.277597,-0.21451 -0.593048,-0.36592 -0.933735,-0.42901 l -8.214347,0 c -0.340688,0.0378 -0.630903,0.17665 -0.883263,0.42901 -0.277598,0.34068 -0.441632,0.73185 -0.504723,1.1861 l 0,4.68129 c 0.06309,0.47949 0.252361,0.89589 0.593049,1.24919 0.25236,0.20189 0.542576,0.31545 0.845409,0.34069 l 8.252201,0 0.757083,-0.29021 z"
       id="path3483" />
    <path
       style="fill:#201e1e;fill-rule:nonzero"
       inkscape:connector-curvature="0"
       class="fil3"
       d="m 92.885417,138.01417 c -0.214507,-0.0379 -0.416396,-0.15142 -0.580431,-0.3407 l -0.164034,-0.30283 0,-9.98086 c 0.07571,-0.56782 0.365923,-0.76971 0.870646,-0.6183 l 11.835722,8.6686 0,-7.96198 0.30284,-0.50473 c 0.18927,-0.1388 0.40377,-0.20189 0.6309,-0.20189 0.42901,0.10095 0.68137,0.36592 0.75708,0.79495 l 0,9.6528 c -0.11356,0.66876 -0.46687,0.87065 -1.08515,0.63091 l -11.671692,-8.5929 0,8.1134 c -0.08833,0.22712 -0.239743,0.41641 -0.466868,0.5552 l -0.429013,0.0883 z"
       id="path3485" />
    <path
       style="fill:#201e1e;fill-rule:nonzero"
       inkscape:connector-curvature="0"
       class="fil3"
       d="m 116.43069,138.01417 c -0.42902,-0.0631 -0.8328,-0.15142 -1.22395,-0.30283 -0.39116,-0.13881 -0.74446,-0.36593 -1.05991,-0.66877 -0.21452,-0.26497 -0.39117,-0.52995 -0.51735,-0.82016 -0.12618,-0.29022 -0.21451,-0.59305 -0.2776,-0.90851 l 0,-5.3879 c 0.0757,-0.45425 0.20189,-0.87065 0.36592,-1.26181 0.17666,-0.39116 0.42903,-0.75708 0.76971,-1.09776 0.2776,-0.25236 0.58043,-0.45426 0.89588,-0.58044 0.32807,-0.12618 0.66876,-0.20189 1.0473,-0.21451 l 8.83263,0 c 0.39116,0.0505 0.7697,0.15142 1.123,0.2776 0.3407,0.13881 0.66877,0.37855 0.94636,0.71924 0.22712,0.29021 0.37854,0.60566 0.46687,0.93373 0.0883,0.34068 0.11356,0.68138 0.0757,1.0473 -0.0505,0.11356 -0.11356,0.22712 -0.20188,0.32807 -0.0883,0.10094 -0.18927,0.17665 -0.30284,0.22712 l -0.4921,0.0505 -0.42902,-0.26498 c -0.17665,-0.20188 -0.25236,-0.44162 -0.23974,-0.71922 0.0252,-0.27761 -0.0883,-0.50473 -0.30283,-0.68138 l -0.55519,-0.25236 -8.92096,0 c -0.17665,0.0378 -0.32806,0.0883 -0.49211,0.15141 -0.15142,0.0757 -0.30283,0.17666 -0.45425,0.32807 -0.1388,0.18927 -0.23974,0.39117 -0.32807,0.60568 -0.0883,0.2145 -0.13879,0.42901 -0.16403,0.65613 l 0,4.757 c 0.0252,0.17665 0.0631,0.34069 0.12618,0.50472 0.0505,0.16405 0.1388,0.31546 0.23974,0.46688 0.15142,0.10094 0.30283,0.20188 0.45425,0.27759 0.15141,0.0631 0.31546,0.11356 0.49211,0.1388 l 9.04714,0 c 0.42901,-0.11356 0.66875,-0.41639 0.73184,-0.88327 l -0.0252,-1.8927 -7.53296,0 c -0.30283,-0.0757 -0.4795,-0.16404 -0.54259,-0.26499 -0.0631,-0.11356 -0.11356,-0.22712 -0.15141,-0.3533 -0.0379,-0.12618 -0.0505,-0.27759 -0.0126,-0.44163 0.10094,-0.42901 0.3407,-0.6309 0.70662,-0.61828 l 8.47932,0 c 0.45425,0.0505 0.70661,0.31545 0.74446,0.79493 l 0,2.86429 c -0.0252,0.35332 -0.11356,0.70662 -0.26497,1.04731 -0.15142,0.34068 -0.39116,0.64352 -0.70661,0.89587 -0.21451,0.15142 -0.45426,0.27761 -0.70662,0.36594 -0.25236,0.0883 -0.51734,0.1388 -0.80755,0.17665 l -8.83263,0 z"
       id="path3487" />
    <path
       style="fill:#201e1e;fill-rule:nonzero"
       inkscape:connector-curvature="0"
       class="fil3"
       d="m 135.49656,138.01417 c -0.22713,-0.0379 -0.4164,-0.15142 -0.59306,-0.3407 l -0.15142,-0.30283 0,-4.88318 c 0.15142,-0.39116 0.39117,-0.60566 0.69401,-0.61828 l 9.95562,0 c 0.44164,-0.0631 0.82018,-0.27759 1.12302,-0.64353 0.17665,-0.25236 0.27759,-0.51733 0.30283,-0.79493 l 0,-0.55519 c -0.0252,-0.39116 -0.20189,-0.73186 -0.50472,-1.00945 -0.2776,-0.21451 -0.59305,-0.36592 -0.9716,-0.42901 l -9.90515,0 c -0.35331,-0.0883 -0.58044,-0.30283 -0.69401,-0.61828 l 0,-0.42901 c 0.17666,-0.39117 0.42903,-0.60568 0.74448,-0.6183 l 9.7285,0 c 0.98422,0.0505 1.82962,0.44165 2.53624,1.17349 0.3533,0.47948 0.59304,1.00944 0.70661,1.58987 l 0,0.42902 0.0505,0.39115 c -0.0252,0.74446 -0.29022,1.43846 -0.75708,2.04413 0.50472,0.34068 0.87064,0.78231 1.09776,1.31228 0.16404,0.39115 0.26498,0.82017 0.2776,1.27441 l 0,2.2334 c -0.0631,0.51734 -0.36592,0.78232 -0.92111,0.79494 -0.21451,-0.0379 -0.4164,-0.15142 -0.58043,-0.3407 l -0.17667,-0.37854 0,-2.43528 c -0.0631,-0.37854 -0.22712,-0.69399 -0.4921,-0.97158 -0.26497,-0.20189 -0.54257,-0.31545 -0.8454,-0.34069 l -0.46686,0 -9.26166,0 0,3.82326 c -0.0883,0.22712 -0.23974,0.41641 -0.46686,0.5552 l -0.42901,0.0883 z"
       id="path3489" />
    <path
       style="fill:#201e1e;fill-rule:nonzero"
       inkscape:connector-curvature="0"
       class="fil3"
       d="m 156.69487,128.43707 -0.4921,-0.23974 c -0.0883,-0.11356 -0.15142,-0.23974 -0.18927,-0.36592 -0.0252,-0.12618 -0.0378,-0.2776 -0.0126,-0.44163 0.16404,-0.36594 0.4164,-0.56782 0.74446,-0.6183 l 12.89564,0 c 0.47949,0.0757 0.73185,0.36592 0.74446,0.87066 -0.0126,0.11356 -0.0505,0.22712 -0.0883,0.31545 -0.0505,0.10094 -0.11356,0.18927 -0.18927,0.27759 l -0.42901,0.20189 -12.98397,0 z m 0.0505,9.5771 0,0 c -0.11356,-0.0379 -0.2145,-0.0757 -0.31545,-0.11356 -0.10094,-0.0505 -0.18927,-0.11356 -0.27759,-0.22714 l -0.15142,-0.30283 0,-5.50146 c 0.10095,-0.3533 0.32807,-0.56782 0.69399,-0.64353 l 11.72216,0 0.45426,0.25237 c 0.0883,0.12618 0.15141,0.23975 0.20188,0.36593 0.0379,0.11356 0.0379,0.26497 0.0126,0.42901 l -0.2145,0.39115 c -0.0757,0.0505 -0.16404,0.10095 -0.25236,0.1388 -0.0757,0.0378 -0.17667,0.0757 -0.27761,0.11356 l -10.7001,0 0,3.40688 12.03762,0 c 0.45424,0.0757 0.69399,0.36592 0.7066,0.89588 -0.0757,0.45424 -0.34068,0.71923 -0.79493,0.79494 l -12.84517,0 z"
       id="path3491" />
    <path
       style="fill:#201e1e;fill-rule:nonzero"
       inkscape:connector-curvature="0"
       class="fil3"
       d="m 179.05404,138.01417 c -0.75708,-0.0631 -1.38798,-0.37855 -1.8927,-0.9716 -0.31546,-0.42901 -0.51735,-0.90849 -0.58044,-1.43844 l 0,-0.54259 c 0.12618,-0.29021 0.25236,-0.46686 0.37854,-0.55519 0.13881,-0.0883 0.3407,-0.11356 0.6183,-0.0757 0.41639,0.11356 0.61828,0.32807 0.61828,0.6309 0,0.31545 0.0757,0.58044 0.2145,0.79494 0.15142,0.22713 0.36592,0.37854 0.64352,0.46687 l 8.75693,0 c 0.45425,-0.0883 0.84541,-0.30283 1.18609,-0.64352 0.1388,-0.21451 0.22712,-0.46687 0.29021,-0.74447 l 0,-0.6309 c -0.0252,-0.39116 -0.20188,-0.73184 -0.54257,-1.00945 -0.26498,-0.20189 -0.55519,-0.32807 -0.89587,-0.37854 l -8.07555,0 c -0.98422,-0.0505 -1.84224,-0.45424 -2.57408,-1.18609 -0.3407,-0.4164 -0.55521,-0.88327 -0.6183,-1.37537 l 0,-1.02205 c 0.10095,-0.66877 0.42902,-1.26181 0.99684,-1.76653 0.66875,-0.4795 1.40059,-0.74447 2.19554,-0.79495 l 8.55503,0 c 0.75708,0.0505 1.38799,0.32807 1.93056,0.84542 0.46687,0.54257 0.70661,1.21133 0.70661,1.96842 -0.0126,0.22712 -0.12618,0.41639 -0.32807,0.59304 -0.18927,0.1388 -0.42901,0.18927 -0.71922,0.17665 -0.27761,-0.12618 -0.45426,-0.27759 -0.52997,-0.45424 -0.0757,-0.16404 -0.12618,-0.4164 -0.15142,-0.73186 -0.0252,-0.32807 -0.30283,-0.56781 -0.83278,-0.73184 l -8.71907,0 c -0.47948,0.0631 -0.88327,0.26498 -1.21134,0.60566 -0.17665,0.27761 -0.25236,0.58044 -0.25236,0.92113 0,0.32806 0.12618,0.61828 0.40378,0.8454 0.31545,0.22712 0.65614,0.36592 1.05992,0.41639 l 8.12602,0 c 0.93373,0.0883 1.74128,0.49212 2.4479,1.22396 0.41639,0.56781 0.65614,1.19872 0.70661,1.89271 l 0,0.54257 c -0.0505,0.9085 -0.42901,1.6782 -1.123,2.33434 -0.65615,0.46686 -1.36276,0.73185 -2.15769,0.79494 l -8.63075,0 z"
       id="path3493" />
    <path
       style="fill:#201e1e;fill-rule:nonzero"
       inkscape:connector-curvature="0"
       class="fil3"
       d="m 200.11356,138.01417 c -0.75708,-0.0631 -1.38798,-0.37855 -1.8927,-0.9716 -0.31546,-0.42901 -0.51735,-0.90849 -0.59306,-1.43844 l 0,-0.54259 c 0.12618,-0.29021 0.26498,-0.46686 0.39116,-0.55519 0.13881,-0.0883 0.3407,-0.11356 0.61829,-0.0757 0.4164,0.11356 0.61828,0.32807 0.61828,0.6309 0,0.31545 0.0757,0.58044 0.21451,0.79494 0.1388,0.22713 0.3533,0.37854 0.64352,0.46687 l 8.75693,0 c 0.45425,-0.0883 0.8454,-0.30283 1.18609,-0.64352 0.1388,-0.21451 0.22712,-0.46687 0.27759,-0.74447 l 0,-0.6309 c -0.0126,-0.39116 -0.20188,-0.73184 -0.54257,-1.00945 -0.25236,-0.20189 -0.54257,-0.32807 -0.88326,-0.37854 l -8.07555,0 c -0.98421,-0.0505 -1.84223,-0.45424 -2.58669,-1.18609 -0.32808,-0.4164 -0.54259,-0.88327 -0.6183,-1.37537 l 0,-1.02205 c 0.11356,-0.66877 0.44164,-1.26181 1.00945,-1.76653 0.66876,-0.4795 1.4006,-0.74447 2.19554,-0.79495 l 8.55504,0 c 0.74446,0.0505 1.38798,0.32807 1.91794,0.84542 0.47948,0.54257 0.71922,1.21133 0.71922,1.96842 -0.0252,0.22712 -0.12618,0.41639 -0.32806,0.59304 -0.20189,0.1388 -0.42901,0.18927 -0.71923,0.17665 -0.27759,-0.12618 -0.45426,-0.27759 -0.52996,-0.45424 -0.0757,-0.16404 -0.12618,-0.4164 -0.15142,-0.73186 -0.0252,-0.32807 -0.30283,-0.56781 -0.83279,-0.73184 l -8.73168,0 c -0.46687,0.0631 -0.87065,0.26498 -1.21134,0.60566 -0.16403,0.27761 -0.25236,0.58044 -0.25236,0.92113 0,0.32806 0.1388,0.61828 0.41639,0.8454 0.31545,0.22712 0.65615,0.36592 1.04731,0.41639 l 8.13864,0 c 0.92111,0.0883 1.74128,0.49212 2.43528,1.22396 0.42901,0.56781 0.66875,1.19872 0.71922,1.89271 l 0,0.54257 c -0.0505,0.9085 -0.42901,1.6782 -1.123,2.33434 -0.65614,0.46686 -1.37537,0.73185 -2.15768,0.79494 l -8.63075,0 z"
       id="path3495" />
    <path
       style="fill:#201e1e;fill-rule:nonzero"
       inkscape:connector-curvature="0"
       class="fil3"
       d="m 225.32441,138.01417 c -0.22712,-0.0379 -0.42901,-0.15142 -0.58043,-0.3407 l -0.17665,-0.32806 0,-4.22705 -6.32164,-5.17339 -0.0378,-0.12618 0,-0.42901 c 0.22712,-0.58044 0.64351,-0.76971 1.26181,-0.55521 l 5.98095,4.76963 5.99356,-4.83272 c 0.694,-0.11356 1.08516,0.17666 1.16087,0.87066 -0.0252,0.25236 -0.12618,0.46686 -0.32807,0.64351 l -6.06928,4.83271 0,4.25228 -0.21451,0.37855 c -0.20188,0.17665 -0.41639,0.26498 -0.66876,0.26498 z"
       id="path3497" />
  </g>
  <path
     id="path3499"
     d="m 18.773664,159.7143 c -3.020018,0.2 -5.990036,-0.41001 -8.8700532,-1.43001 -3.9400236,-1.40001 -7.340044,-3.66002 -10.21006126,-6.70004 -2.80001684,-2.97002 -4.80002884,-6.41004 -5.97003584,-10.30006 -0.5400032,-1.80001 -0.9700058,-3.63003 -1.000006,-5.52004 -0.01,-1.11 -0.1200007,-2.22001 -0.09,-3.33002 0.05,-2.12001 0.4000024,-4.21002 0.9900059,-6.25003 1.4100085,-4.90003 4.0500243,-9.02006 7.8600472,-12.39008 2.1600129,-1.92001 4.5800275,-3.43002 7.2400434,-4.53003 1.8200113,-0.75 3.7100223,-1.24 5.6500343,-1.61001 2.350014,-0.45 4.710028,-0.35 7.060042,-0.24 2.250013,0.1 4.450027,0.68001 6.580039,1.47001 2.220014,0.83001 4.310026,1.92001 6.220038,3.33002 1.66001,1.23001 3.31002,2.49002 4.440026,4.28003 1.160007,1.85001 1.480009,3.85002 1.220008,6.01003 -0.260002,2.21002 -1.340008,3.92003 -2.870017,5.44004 -3.980024,3.95002 -7.950048,7.92004 -11.900072,11.89007 -1.230007,1.23 -2.680016,2.07001 -4.360026,2.38001 -4.360026,0.81001 -8.590052,-1.09 -10.220061,-5.58003 -1.2600079,-3.47002 -0.5600037,-6.67004 2.000012,-9.34006 1.360008,-1.43001 3.060018,-2.26001 5.07003,-2.49001 2.220013,-0.26 4.290026,0.07 6.120037,1.35001 0.880005,0.61 1.64001,1.4 2.410014,2.14001 0.110001,0.1 0.06,0.52 -0.06,0.66 -0.720004,0.78001 -1.490009,1.51001 -2.230014,2.27002 -0.270001,0.27 -0.490002,0.21 -0.760004,-0.03 -0.640004,-0.59001 -1.250008,-1.23001 -1.970012,-1.69001 -2.150013,-1.38001 -4.720028,-0.50001 -6.060036,1.3 -2.270014,3.08002 -0.05,7.03005 3.290019,7.41005 1.490009,0.18 2.740017,-0.33 3.750023,-1.33001 4.150025,-4.10002 8.27005,-8.24005 12.380074,-12.37007 0.890006,-0.89001 1.390009,-2.01002 1.400009,-3.26002 0.01,-1.48001 -0.690004,-2.70002 -1.760011,-3.69003 -1.420008,-1.31 -2.960018,-2.47001 -4.660028,-3.40002 -2.080012,-1.15 -4.300026,-1.94001 -6.63004,-2.39001 -1.850011,-0.36 -3.730022,-0.49 -5.590033,-0.32 -5.450033,0.52 -10.1900613,2.63001 -14.0800846,6.54004 -2.25001354,2.26001 -3.92002356,4.89003 -5.0400303,7.87004 -0.6200037,1.64001 -1.0800065,3.33002 -1.2200073,5.10003 -0.08,1.05001 -0.2200013,2.10002 -0.1800011,3.15002 0.07,2.21002 0.4700028,4.36003 1.1800071,6.47004 0.8600052,2.56002 2.14001284,4.87003 3.8500231,6.95004 2.4700148,3.02002 5.5100331,5.26004 9.1600551,6.64004 1.240007,0.47001 2.510015,0.88001 3.810023,1.12001 2.000012,0.38 4.030024,0.5 6.080036,0.28 1.740011,-0.18 3.440021,-0.51 5.080031,-1.07 2.540015,-0.86001 4.860029,-2.12002 6.910041,-3.84003 0.710004,-0.6 1.410009,-1.24001 2.030012,-1.94001 0.690004,-0.78 1.060007,-1.76001 1.060007,-2.80002 0.01,-1.36 -0.580004,-2.51001 -1.520009,-3.47002 -1.150007,-1.17 -2.320014,-2.32001 -3.470021,-3.48002 -0.450003,-0.44 -0.440003,-0.57 0.01,-1.01 0.670004,-0.66001 1.330008,-1.33001 1.990012,-2.00002 0.370002,-0.38 0.570003,-0.37 0.940005,0 1.180007,1.20001 2.390015,2.39002 3.570022,3.60003 1.360008,1.38 2.220013,3.00001 2.490015,4.96003 0.460003,3.45002 -0.740005,6.20003 -3.29002,8.46005 -1.950012,1.72001 -4.060024,3.20002 -6.430039,4.31002 -2.020012,0.94001 -4.120024,1.63001 -6.330038,2.05001 -1.66001,0.31001 -3.320019,0.44001 -5.07003,0.37001 z"
     class="fil4"
     inkscape:connector-curvature="0"
     style="fill:#5daab8;fill-rule:evenodd" />
</g>
</svg>
