<?xml version="1.0" encoding="UTF-8" standalone="no"?>
<!-- Created with Inkscape (http://www.inkscape.org/) -->
<svg xmlns:rdf="http://www.w3.org/1999/02/22-rdf-syntax-ns#" xmlns="http://www.w3.org/2000/svg" height="72.643mm" width="144.96mm" version="1.1" xmlns:cc="http://creativecommons.org/ns#" xmlns:dc="http://purl.org/dc/elements/1.1/" viewBox="0 0 144.96001 72.643425">
 <metadata>
  <rdf:RDF>
   <cc:Work rdf:about="">
    <dc:format>image/svg+xml</dc:format>
    <dc:type rdf:resource="http://purl.org/dc/dcmitype/StillImage"/>
    <dc:title/>
   </cc:Work>
  </rdf:RDF>
 </metadata>
 <g transform="translate(-28.062 -143.51)">
  <g style="image-rendering:optimizeQuality;shape-rendering:geometricPrecision" clip-rule="evenodd" transform="matrix(.01 0 0 .01 -609.55 206.07)" fill-rule="evenodd">
   <g fill="#fff" fill-rule="nonzero">
    <path d="m64004 1008c-34-4-66-12-97-23-31-12-59-29-83-54-18-20-32-42-42-65s-17-47-21-71v-428c5-35 15-68 29-100 13-31 33-60 60-87 22-20 46-35 71-45 26-10 54-16 83-18h700c32 4 61 12 89 23s53 30 76 57c17 22 29 47 36 74 7 26 9 54 6 82-4 10-9 18-16 26s-15 14-24 18l-39 4-34-20c-14-16-20-35-18-57 1-23-7-41-25-54l-44-20h-707c-13 2-26 6-38 12-13 5-25 14-36 26-11 15-20 31-27 48-7 16-11 34-12 51v378c1 13 4 26 9 39s11 26 20 38c11 8 23 15 36 21 12 6 25 10 38 11h717l44-26c8-16 13-34 13-54 0-19 6-37 20-53 9-7 19-12 29-15 10-4 22-4 35-2 9 4 17 9 25 15s14 13 18 22l6 50c-1 29-8 57-20 84-13 27-31 50-57 70-17 13-36 23-56 29-20 7-41 12-64 14z" class="fil1"/>
    <path d="m65687 1008c-67-4-127-32-178-83-35-45-57-97-66-157v-415c9-64 37-121 86-173 47-38 100-59 158-63h641c76 7 140 38 193 94 38 48 59 104 63 166v371c-4 78-35 144-93 200-45 36-96 56-154 60zm714-156c27-27 43-58 49-94v-387c-1-34-16-63-43-87-21-18-46-29-73-34h-651c-27 2-50 14-71 34-22 27-35 58-39 93v371c4 38 20 71 47 100 20 16 42 25 67 26h654z" class="fil1"/>
    <path d="m67184 1008c-18-2-33-11-47-26l-12-24v-792c6-44 29-61 69-49l938 688v-631l24-40c15-11 32-17 50-17 34 9 54 30 60 63v765c-9 53-38 70-86 51l-925-682v644c-7 17-19 32-37 44z" class="fil1"/>
    <path d="m69050 1008c-34-4-66-12-98-23-31-12-58-29-83-54-17-20-31-42-41-65-11-23-18-47-22-71v-428c6-35 16-68 29-100 14-31 34-60 61-87 22-20 45-35 71-45s53-16 83-18h700c31 4 61 12 88 23 28 11 53 30 76 57 18 22 30 47 37 74 6 26 8 54 6 82-4 10-10 18-16 26-7 8-15 14-24 18l-40 4-34-20c-13-16-19-35-18-57 1-23-7-41-25-54l-44-20h-706c-14 2-27 6-39 12-12 5-24 14-36 26-11 15-20 31-26 48-7 16-11 34-13 51v378c2 13 5 26 10 39 4 13 11 26 19 38 12 8 24 15 36 21s25 10 39 11h716c35-9 54-32 58-69l-1-150h-597c-24-6-39-13-43-22-5-8-9-17-12-27-4-10-4-22-2-36 9-33 28-50 57-49h672c36 4 56 25 59 63v227c-2 29-9 57-21 84s-31 50-56 70c-18 13-36 23-56 29-20 7-41 12-64 14z" class="fil1"/>
    <path d="m70561 1008c-18-2-34-11-47-26l-13-24v-388c13-31 32-47 56-49h789c35-5 65-22 89-50 14-21 22-42 24-64v-44c-2-31-16-57-40-79-22-18-48-29-77-34h-785c-28-8-46-24-56-49v-35c15-31 35-47 60-49h771c78 4 145 36 200 94 29 38 48 80 57 126v34l4 30c-3 60-23 114-61 163 41 27 70 61 88 103 13 32 20 65 22 101v177c-5 41-29 62-73 63-18-2-33-11-47-26l-14-31v-193c-4-29-17-55-39-77-20-16-42-24-67-26h-771v303c-6 17-19 32-36 44z" class="fil1"/>
    <path d="m72241 250-39-19c-7-9-12-19-15-29s-3-22-2-36c14-28 34-45 60-49h1022c38 6 57 29 59 70-2 9-4 17-7 25-4 7-9 15-16 21l-34 17zm4 758c-9-2-17-5-25-9-8-3-15-9-22-17l-13-24v-437c9-28 27-45 56-50h929l36 20c7 9 12 19 15 28 4 10 4 21 2 35l-17 30c-7 4-13 8-20 12-7 3-14 6-23 8h-848v270h954c36 6 55 30 57 71-7 36-28 57-63 63z" class="fil1"/>
    <path d="m74013 1008c-60-4-110-30-150-77-25-33-41-71-47-113v-43c10-23 21-38 31-44 11-7 27-9 49-7 33 9 49 26 49 51 0 24 6 45 17 63s28 30 51 36h694c36-6 67-23 94-50 11-18 18-37 22-59v-51c-1-31-16-57-43-79-20-16-43-26-70-31h-640c-78-4-146-35-205-93-26-34-43-70-49-110v-81c9-53 35-99 80-140 53-38 111-59 174-63h678c59 4 110 27 152 67 38 44 57 96 57 157-2 17-10 33-26 46-16 11-35 16-57 14-22-10-36-22-42-35-6-14-10-33-12-59-2-25-24-45-66-57h-692c-38 5-70 21-96 48-13 22-20 46-20 73 0 26 11 48 33 67 24 17 52 28 83 33h645c73 6 138 39 193 97 34 44 53 94 57 150v43c-4 71-34 133-89 184-52 38-109 59-171 63z" class="fil1"/>
    <path d="m75682 1008c-61-4-111-30-150-77-25-33-41-71-47-113v-43c10-23 20-38 31-44 10-7 27-9 49-7 32 9 49 26 49 51 0 24 5 45 17 63 11 18 28 30 51 36h694c35-6 66-23 93-50 11-18 19-37 23-59v-51c-2-31-16-57-43-79-20-16-44-26-70-31h-640c-79-4-147-35-205-93-27-34-43-70-49-110v-81c8-53 35-99 80-140 53-38 111-59 174-63h677c60 4 111 27 153 67 38 44 57 96 57 157-2 17-11 33-27 46-15 11-34 16-56 14-22-10-36-22-42-35-6-14-10-33-12-59-2-25-24-45-66-57h-692c-38 5-70 21-96 48-13 22-20 46-20 73 0 26 11 48 33 67 24 17 52 28 83 33h645c73 6 138 39 193 97 34 44 53 94 57 150v43c-4 71-34 133-90 184-51 38-108 59-170 63z" class="fil1"/>
    <path d="m77680 1008c-18-2-34-11-47-26l-14-27v-334l-500-410-3-10v-35c18-46 51-61 100-44l474 379 475-384c55-8 86 15 92 70-2 20-11 37-27 50l-481 384v337l-16 30c-16 13-34 20-53 20z" class="fil1"/>
   </g>
   <path d="m71255-1017c-302 20-599-41-887-143-394-140-734-366-1021-671-280-296-480-640-597-1029-54-180-97-363-100-552-1-111-11-222-9-333 6-213 40-421 99-626 141-490 405-901 786-1239 216-191 458-342 724-452 182-76 371-124 565-161 235-45 472-35 706-24 225 10 445 68 658 147 222 83 431 191 622 333 166 123 331 249 444 428 116 185 148 385 122 601-26 220-134 391-287 544-398 395-794 792-1190 1189-123 123-268 207-436 238-436 80-859-109-1022-559-125-346-56-666 200-934 136-142 306-225 507-248 222-26 429 7 613 135 87 61 163 139 240 214 11 10 6 52-6 65-72 78-149 152-223 228-27 26-49 21-76-4-64-58-125-122-197-168-215-138-471-51-605 130-228 308-6 703 328 741 149 18 274-33 375-133 415-410 827-824 1239-1238 88-89 139-200 139-325 1-149-69-270-176-369-142-131-296-247-465-341-209-114-431-193-664-238-184-36-373-49-559-32-545 52-1019 263-1408 654-225 226-392 489-504 786-62 165-108 334-121 510-9 105-23 211-19 316 7 220 47 436 118 646 87 256 214 488 385 696 247 301 552 526 917 664 123 47 250 87 380 112 200 37 403 50 609 28 173-18 343-51 508-107 253-86 485-212 690-384 72-60 141-124 203-194 69-78 106-176 106-280 1-136-57-251-152-347-115-117-231-232-347-348-45-44-44-57 1-101 67-66 133-133 199-200 37-38 57-37 94 0 119 120 239 239 358 359 135 139 221 301 248 497 46 344-74 620-329 846-195 172-406 320-642 431-203 94-413 162-634 204-166 32-332 45-507 38z" class="fil2" fill="#fefefe"/>
  </g>
 </g>
</svg>
