<?xml version="1.0" encoding="iso-8859-1"?>
<!-- Generator: Adobe Illustrator 19.0.0, SVG Export Plug-In . SVG Version: 6.00 Build 0)  -->
<svg version="1.1" id="Capa_1" xmlns="http://www.w3.org/2000/svg" xmlns:xlink="http://www.w3.org/1999/xlink" x="0px" y="0px"
	 viewBox="0 0 512.291 512.291" style="enable-background:new 0 0 512.291 512.291;" xml:space="preserve">
<path style="fill:#344A5E;" d="M234.667,428.945v-89.6h-16v89.6c-10.667,3.2-18.133,13.867-18.133,25.6
	c0,14.933,11.733,26.667,26.667,26.667s26.667-11.733,26.667-26.667C252.8,442.812,245.333,432.145,234.667,428.945z
	 M226.133,465.212c-5.333,0-10.667-4.267-10.667-10.667s4.267-10.667,10.667-10.667s10.667,4.267,10.667,10.667
	C236.8,459.879,232.533,465.212,226.133,465.212z"/>
<rect x="23.467" y="24.679" style="fill:#F3F3F3;" width="405.333" height="308.267"/>
<g>
	<path style="fill:#415A6B;" d="M427.733,319.079h-403.2C10.667,319.079,0,329.745,0,343.612l0,0
		c0,13.867,10.667,24.533,24.533,24.533h403.2c13.867,0,24.533-10.667,24.533-24.533l0,0
		C452.267,329.745,441.6,319.079,427.733,319.079z"/>
	<path style="fill:#415A6B;" d="M24.533,49.212h403.2c13.867,0,24.533-10.667,24.533-24.533S441.6,0.145,427.733,0.145h-403.2
		C10.667,0.145,0,10.812,0,24.679S10.667,49.212,24.533,49.212z"/>
</g>
<path style="fill:#FFD15C;" d="M189.867,178.279c-26.667-26.667-70.4-26.667-97.067,0l49.067,49.067L189.867,178.279z"/>
<path style="fill:#F3705A;" d="M72.533,226.279c0,18.133,6.4,35.2,20.267,49.067c26.667,26.667,70.4,26.667,97.067,0L140.8,226.279
	H72.533z"/>
<path style="fill:#66C6B9;" d="M140.8,226.279l-49.067-49.067c-13.867,13.867-20.267,30.933-20.267,49.067H140.8z"/>
<path style="fill:#415A6B;" d="M189.867,275.345c26.667-26.667,26.667-70.4,0-97.067L140.8,227.345L189.867,275.345z"/>
<path style="fill:#FFD15C;" d="M489.6,475.879c0,0-10.667,26.667-12.8,29.867c-2.133,3.2-2.133,3.2-2.133,3.2l-18.133-38.4
	l24.533-5.333L489.6,475.879z"/>
<path style="fill:#66C6B9;" d="M478.933,512.145c1.067-4.267,0-14.933-4.267-28.8c-5.333-14.933-16-78.933-16-78.933
	s-121.6-13.867-133.333,12.8c-10.667,23.467-17.067,81.067-18.133,94.933H478.933z"/>
<path style="fill:#FFD15C;" d="M364.8,200.679v-8.533c0,0-9.6-13.867-11.733-26.667c-2.133-12.8-5.333-36.267-5.333-36.267
	s4.267-16,16-20.267c12.8-3.2,20.267-5.333,26.667-4.267c6.4,1.067,23.467,17.067,23.467,21.333c0,4.267,2.133,43.733-1.067,51.2
	c0,0,0,23.467,12.8,33.067l0,0c7.467,5.333,8.533,14.933,2.133,22.4c-9.6-3.2-24.533,21.333-39.467,44.8L358.4,230.545
	C360.533,231.612,359.467,207.079,364.8,200.679z"/>
<path style="fill:#F7B64C;" d="M392.533,222.012c17.067-9.6,22.4-43.733,22.4-43.733s-12.8,24.533-27.733,26.667
	c-14.933,2.133-22.4-11.733-22.4-11.733v7.467c-4.267,5.333-4.267,21.333-4.267,28.8
	C370.133,229.479,382.933,228.412,392.533,222.012z"/>
<path style="fill:#CED6E0;" d="M380.8,228.412c0,0,5.333,3.2,7.467,5.333c2.133,2.133,7.467,6.4,7.467,6.4s7.467-3.2,10.667-8.533
	c3.2-5.333,12.8-9.6,12.8-9.6l16,2.133l7.467,197.333c-33.067,16-67.2,16-100.267,0l9.6-196.267L380.8,228.412z"/>
<path style="fill:#F3F3F3;" d="M364.8,200.679c0,0,7.467,19.2,16,27.733c0,0-11.733,3.2-10.667,18.133l-14.933-25.6L364.8,200.679z"
	/>
<g>
	
		<ellipse transform="matrix(0.1422 -0.9898 0.9898 0.1422 205.4821 544.6701)" style="fill:#FFD15C;" cx="416.997" cy="153.779" rx="11.733" ry="5.333"/>
	
		<ellipse transform="matrix(0.2177 0.976 -0.976 0.2177 435.7446 -218.1203)" style="fill:#FFD15C;" cx="353.939" cy="162.763" rx="11.733" ry="5.333"/>
</g>
<path style="fill:#415A6B;" d="M412.8,155.879h2.133c0,0,0-10.667,3.2-12.8c3.2-2.133,4.267-10.667,2.133-19.2
	S406.4,96.145,390.4,94.012s-32,3.2-40.533,20.267c-8.533,16,2.133,40.533,2.133,43.733s1.067,5.333,1.067,5.333h1.067
	c0,0-3.2-14.933-2.133-21.333s0-11.733,1.067-14.933c1.067-3.2,13.867-14.933,32-10.667s20.267,7.467,22.4,11.733
	C409.6,132.412,413.867,144.145,412.8,155.879z"/>
<path style="fill:#F3F3F3;" d="M417.067,195.345c0,0,0,22.4-10.667,37.333c0,0,10.667-5.333,12.8,1.067
	c2.133,6.4,3.2,11.733,3.2,11.733s6.4-14.933,6.4-28.8C428.8,202.812,421.333,197.479,417.067,195.345z"/>
<path style="fill:#4ABAA5;" d="M208,287.079l3.2-8.533c0,0,11.733-20.267,25.6-18.133c0,0,5.333,5.333,2.133,12.8
	s-10.667,20.267-11.733,20.267l-19.2,2.133C208,295.612,206.933,290.279,208,287.079z"/>
<path style="fill:#FFD15C;" d="M220.8,293.479c0,0-4.267-13.867-6.4-16c-2.133-2.133-1.067-6.4-2.133-7.467
	c-1.067-1.067-10.667-7.467-13.867-13.867c-2.133-6.4-5.333-7.467-4.267-10.667c0,0-1.067-5.333,0-6.4c0,0-3.2-6.4,4.267-11.733
	c0,0-3.2-3.2-6.4-6.4s-7.467-6.4-10.667-7.467c-3.2-1.067-6.4-4.267-5.333-7.467c1.067-3.2,7.467-1.067,10.667,0
	c3.2,1.067,9.6,6.4,12.8,8.533c3.2,2.133,5.333,5.333,9.6,7.467l7.467,5.333c0,0,2.133-2.133,8.533,0
	c5.333,2.133,8.533,0,8.533,5.333s2.133,14.933,0,18.133c-1.067,4.267,4.267,19.2,4.267,19.2L220.8,293.479z"/>
<path style="fill:#FFFFFF;" d="M235.733,262.545c0,0-7.467,17.067-21.333,24.533l7.467,13.867l21.333-25.6L235.733,262.545z"/>
<g>
	<path style="fill:#F7B64C;" d="M202.667,252.945c0,0,4.267-1.067,4.267-2.133c0,0,3.2,0,4.267,1.067
		c1.067,1.067,3.2,2.133,5.333,2.133c2.133,0,4.267-1.067,4.267-3.2s-1.067-3.2-1.067-3.2s3.2,0,3.2-2.133
		c1.067-2.133,0-4.267-2.133-5.333c-2.133-1.067-5.333-3.2-5.333-3.2s3.2,0,5.333-1.067c1.067-1.067,3.2-2.133,3.2-2.133
		s-1.067,2.133,1.067,2.133s2.133,0,2.133,0s-5.333,1.067-5.333,2.133c-1.067,1.067,1.067,5.333,1.067,8.533c0,3.2,0,6.4,0,7.467
		c0,0,0-1.067-2.133-1.067c-1.067-1.067-2.133,1.067-4.267,1.067c-2.133,0-6.4-1.067-8.533-1.067c0,1.067-5.333,3.2-5.333,3.2
		s0-1.067,1.067-1.067L202.667,252.945z"/>
	<path style="fill:#F7B64C;" d="M217.6,238.012h-2.133c0,0-3.2-1.067-4.267-3.2c-2.133-2.133-5.333-4.267-7.467-3.2
		c-2.133,0-5.333,4.267-5.333,4.267s4.267-3.2,6.4-3.2c2.133,0,6.4,2.133,7.467,4.267C212.267,236.945,217.6,239.079,217.6,238.012
		C219.733,239.079,217.6,238.012,217.6,238.012z"/>
	<path style="fill:#F7B64C;" d="M220.8,248.679c0,0-2.133-1.067-4.267-2.133c-2.133-1.067-5.333-4.267-7.467-5.333
		c-2.133-1.067-2.133-1.067-3.2,0c-1.067,1.067-5.333,2.133-5.333,2.133s4.267-2.133,6.4-1.067c2.133,1.067,5.333,2.133,6.4,3.2
		c2.133,1.067,5.333,4.267,5.333,4.267L220.8,248.679L220.8,248.679z"/>
	<path style="fill:#F7B64C;" d="M217.6,226.279c0,0-1.067,0-1.067,1.067l-1.067,1.067c-1.067,0-1.067,1.067-2.133,1.067
		c0,0,0,0-1.067,1.067l0,0l0,0c0,1.067,0,1.067,0,2.133s0,2.133,0,2.133s0-1.067-1.067-2.133c0-1.067,0-1.067,0-2.133
		c0,0,0,0,0-1.067c0,0,0,0,0-1.067c0,0,0-1.067,1.067-1.067c1.067-1.067,2.133-2.133,3.2-2.133
		C216.533,226.279,217.6,226.279,217.6,226.279z"/>
	<path style="fill:#F7B64C;" d="M199.467,226.279l4.267-3.2c1.067,0,1.067,0,2.133-1.067c1.067,0,1.067,0,2.133,0
		c1.067,0,2.133,1.067,3.2,1.067c1.067,1.067,1.067,1.067,2.133,2.133c0,1.067,1.067,1.067,1.067,2.133v1.067c0,0,0,0,0-1.067
		l-1.067-1.067c-1.067-1.067-1.067-1.067-2.133-2.133c-1.067-1.067-2.133-1.067-3.2-1.067h-1.067h-1.067
		C203.733,224.145,199.467,226.279,199.467,226.279z"/>
</g>
<path style="fill:#66C6B9;" d="M235.733,260.412c0,0,8.533,18.133-23.467,33.067c0,0-5.333,4.267-4.267-1.067
	c1.067-5.333,2.133-13.867,2.133-13.867s-6.4,10.667-4.267,17.067c2.133,7.467,21.333,27.733,25.6,36.267s12.8,28.8,21.333,30.933
	c8.533,2.133,19.2-2.133,23.467-5.333c5.333-2.133,12.8-6.4,16-8.533s4.267-7.467,7.467-11.733
	c3.2-4.267,14.933-23.467,14.933-23.467l14.933-25.6c0-1.067-23.467-59.733-23.467-59.733s-6.4-2.133-8.533,3.2
	c-2.133,5.333-2.133,10.667-4.267,14.933c-2.133,4.267-4.267,7.467-6.4,13.867c-2.133,6.4-3.2,10.667-4.267,12.8
	c-1.067,2.133-3.2,3.2-3.2,7.467s-1.067,5.333-1.067,5.333l-17.067,19.2c0,0-5.333-7.467-6.4-10.667
	C254.933,290.279,240,262.545,235.733,260.412z"/>
<path style="fill:#4ABAA5;" d="M361.6,377.745c-1.067,36.267-21.333,96-35.2,107.733c-13.867,11.733-36.267-14.933-36.267-14.933
	s8.533-38.4,19.2-75.733s6.4-82.133,6.4-82.133c-11.733-42.667-9.6-83.2-9.6-83.2c4.267,0,28.8-8.533,39.467-13.867
	c9.6-5.333,18.133-13.867,19.2-13.867c-3.2,6.4-4.267,44.8-1.067,68.267C365.867,293.479,362.667,341.479,361.6,377.745z"/>
<g>
	<path style="fill:#66C6B9;" d="M364.8,200.679c0,0-7.467,5.333-9.6,6.4c-2.133,1.067-6.4,10.667-6.4,10.667l5.333,5.333H342.4
		c0,0,2.133,64,5.333,83.2c3.2,19.2,12.8,60.8,12.8,76.8c-1.067,16-1.067,16-1.067,16s6.4-43.733,7.467-71.467
		C368,300.945,362.667,216.679,364.8,200.679z"/>
	<path style="fill:#66C6B9;" d="M460.8,230.545l29.867-7.467c0,0,3.2,1.067,4.267,11.733c0,10.667,6.4,17.067,6.4,23.467
		c0,6.4-2.133,10.667,0,16c2.133,5.333,7.467,55.467,8.533,66.133s3.2,22.4,2.133,27.733c-1.067,4.267-8.533,65.067-10.667,75.733
		c-2.133,10.667-10.667,42.667-10.667,42.667s-9.6-18.133-28.8-20.267c0,0,5.333-56.533,9.6-71.467
		c4.267-14.933,6.4-14.933,4.267-19.2s-9.6-11.733-9.6-17.067s3.2-18.133,1.067-26.667C465.067,323.345,460.8,230.545,460.8,230.545
		z"/>
</g>
<path style="fill:#4ABAA5;" d="M432,206.012c0,0,18.133,5.333,32,10.667c12.8,5.333,27.733,7.467,27.733,7.467
	s-13.867,26.667-19.2,60.8c0,0-12.8,150.4,10.667,190.933c0,0-37.333,13.867-49.067-2.133c-11.733-16-7.467-85.333-7.467-85.333
	C423.467,368.145,428.8,275.345,432,206.012z"/>
<path style="fill:#66C6B9;" d="M421.333,198.545c0,0,5.333,34.133,3.2,59.733c-2.133,25.6-2.133,116.267,1.067,129.067
	c0,0-2.133-23.467,2.133-33.067c4.267-10.667,21.333-80,17.067-133.333l-8.533,3.2l4.267-5.333c0,0-3.2-9.6-9.6-13.867
	C424.533,199.612,423.467,198.545,421.333,198.545z"/>
<polygon style="fill:#ADB3BA;" points="177.067,131.345 138.667,96.145 91.733,130.279 87.467,122.812 139.733,85.479 176,119.612 
	221.867,74.812 272,97.212 302.933,66.279 309.333,71.612 273.067,107.879 222.933,84.412 "/>
<path style="fill:#415A6B;" d="M150.4,91.879c0,6.4-5.333,11.733-11.733,11.733s-11.733-5.333-11.733-11.733
	s5.333-11.733,11.733-11.733C145.067,81.212,150.4,85.479,150.4,91.879z"/>
<path style="fill:#55C0EB;" d="M187.733,124.945c0,6.4-5.333,11.733-11.733,11.733c-6.4,0-11.733-5.333-11.733-11.733
	S169.6,113.212,176,113.212C182.4,113.212,187.733,118.545,187.733,124.945z"/>
<path style="fill:#F3705A;" d="M101.333,127.079c0,6.4-5.333,11.733-11.733,11.733s-11.733-5.333-11.733-11.733
	S83.2,115.345,89.6,115.345C96,114.279,101.333,119.612,101.333,127.079z"/>
<path style="fill:#FFD15C;" d="M233.6,81.212c0,6.4-5.333,11.733-11.733,11.733c-6.4,0-11.733-5.333-11.733-11.733
	s5.333-11.733,11.733-11.733C228.267,69.479,233.6,73.745,233.6,81.212z"/>
<path style="fill:#66C6B9;" d="M284.8,101.479c0,6.4-5.333,11.733-11.733,11.733s-11.733-5.333-11.733-11.733
	c0-6.4,5.333-11.733,11.733-11.733S284.8,95.079,284.8,101.479z"/>
<path style="fill:#F3705A;" d="M317.867,69.479c0,6.4-5.333,11.733-11.733,11.733S294.4,75.879,294.4,69.479
	c0-6.4,5.333-11.733,11.733-11.733C312.533,56.679,317.867,62.012,317.867,69.479z"/>
<g>
</g>
<g>
</g>
<g>
</g>
<g>
</g>
<g>
</g>
<g>
</g>
<g>
</g>
<g>
</g>
<g>
</g>
<g>
</g>
<g>
</g>
<g>
</g>
<g>
</g>
<g>
</g>
<g>
</g>
</svg>
